<svg xmlns="http://www.w3.org/2000/svg" xmlns:xlink="http://www.w3.org/1999/xlink" viewBox="0 0 1400 980"><script xmlns="" type="text/javascript" charset="utf-8" id="zm-extension"/><defs><style>.cls-1{fill:none;}.cls-2{fill:url(#linear-gradient);}.cls-3{fill:url(#Fade_to_Black_1);}.cls-4{fill:url(#Fade_to_Black_1-2);}.cls-5{fill:url(#Fade_to_Black_1-3);}.cls-6{fill:url(#radial-gradient);}.cls-7,.cls-87{fill:#f2e74f;}.cls-8{fill:#be752a;}.cls-9{fill:#f3791f;}.cls-10{fill:url(#linear-gradient-2);}.cls-11{fill:#f9a729;}.cls-12{fill:url(#linear-gradient-3);}.cls-13{fill:url(#linear-gradient-4);}.cls-14{fill:url(#linear-gradient-5);}.cls-15{fill:url(#linear-gradient-6);}.cls-16{fill:url(#linear-gradient-7);}.cls-17{fill:url(#linear-gradient-8);}.cls-18{fill:url(#linear-gradient-9);}.cls-19{fill:url(#linear-gradient-10);}.cls-20{fill:url(#linear-gradient-11);}.cls-21{fill:#8f1a1d;}.cls-22{fill:url(#linear-gradient-12);}.cls-23{fill:#a63126;}.cls-24{fill:url(#linear-gradient-13);}.cls-25{fill:url(#linear-gradient-14);}.cls-26{fill:url(#linear-gradient-15);}.cls-27{fill:url(#linear-gradient-16);}.cls-28{fill:url(#linear-gradient-17);}.cls-29{fill:url(#linear-gradient-18);}.cls-30{fill:url(#linear-gradient-19);}.cls-31{fill:#742c2d;}.cls-32{fill:#8d3030;}.cls-33{fill:url(#linear-gradient-20);}.cls-34{fill:url(#linear-gradient-21);}.cls-35{fill:url(#linear-gradient-22);}.cls-36{fill:url(#linear-gradient-23);}.cls-37{fill:url(#linear-gradient-24);}.cls-38{fill:url(#linear-gradient-25);}.cls-39{fill:url(#linear-gradient-26);}.cls-40{fill:url(#linear-gradient-27);}.cls-41{fill:#a61f23;}.cls-42{fill:#f30;}.cls-43{fill:url(#linear-gradient-28);}.cls-44{fill:#ff4824;}.cls-45{fill:url(#linear-gradient-29);}.cls-46{fill:url(#linear-gradient-30);}.cls-47{fill:url(#linear-gradient-31);}.cls-48{fill:url(#linear-gradient-32);}.cls-49{fill:url(#linear-gradient-33);}.cls-50{fill:url(#linear-gradient-34);}.cls-51{fill:url(#linear-gradient-35);}.cls-52{fill:#ef912b;}.cls-53{fill:url(#linear-gradient-36);}.cls-54{fill:#dd6b1d;}.cls-55{fill:url(#linear-gradient-37);}.cls-56{fill:#754c28;}.cls-57{fill:#8a5d3b;}.cls-58{fill:#ff8022;}.cls-59{fill:#f89429;}.cls-60{fill:url(#radial-gradient-2);}.cls-61{fill:url(#linear-gradient-38);}.cls-62{fill:#dd6d22;}.cls-63{fill:url(#linear-gradient-39);}.cls-64{fill:#f26620;}.cls-65{fill:url(#linear-gradient-40);}.cls-66{fill:url(#Brick_6);}.cls-67{fill:url(#Brick_6-2);}.cls-68{fill:url(#linear-gradient-41);}.cls-69{fill:url(#linear-gradient-42);}.cls-70,.cls-88,.cls-91{fill:#fff;}.cls-70{opacity:0.15;}.cls-71{clip-path:url(#clip-path);}.cls-72{fill:#e6a231;}.cls-73{fill:#f2f2f2;}.cls-74{fill:#f2b137;}.cls-75{fill:#f2c436;}.cls-76{fill:#fbb040;}.cls-77{fill:#d99c2a;}.cls-78{fill:#efd937;}.cls-79{fill:#f7941d;}.cls-80{opacity:0.5;}.cls-81{fill:url(#Fade_to_Black_2);}.cls-82{fill:url(#Fade_to_Black_2-2);}.cls-83{fill:url(#Fade_to_Black_2-3);}.cls-84{fill:url(#Fade_to_Black_2-4);}.cls-85{fill:url(#linear-gradient-43);}.cls-86{fill:url(#linear-gradient-44);}.cls-87{font-size:79px;font-family:OpenSans-Semibold, Open Sans;font-weight:700;letter-spacing:0.1em;}.cls-88{font-size:18.33px;letter-spacing:0.1em;}.cls-88,.cls-91{font-family:OpenSans-Light, Open Sans;}.cls-89{letter-spacing:0.1em;}.cls-90{font-size:25.14px;fill:#4a3b3c;font-family:OpenSans, Open Sans;letter-spacing:0.1em;}.cls-91{font-size:14.12px;}</style><linearGradient id="linear-gradient" x1="700" y1="5" x2="700" y2="910.73" gradientUnits="userSpaceOnUse"><stop offset="0" stop-color="#ce603b"/><stop offset="0.02" stop-color="#cb5e3b"/><stop offset="0.5" stop-color="#942e40"/><stop offset="0.57" stop-color="#852f40"/><stop offset="0.86" stop-color="#493242"/><stop offset="1" stop-color="#313343"/></linearGradient><linearGradient id="Fade_to_Black_1" x1="15.63" y1="285" x2="15.63" y2="997.51" gradientUnits="userSpaceOnUse"><stop offset="0" stop-color="#231f20"/><stop offset="0.06" stop-color="#231f20" stop-opacity="0.86"/><stop offset="0.33" stop-color="#231f20" stop-opacity="0.38"/><stop offset="0.63" stop-color="#231f20" stop-opacity="0.09"/><stop offset="1" stop-color="#231f20" stop-opacity="0"/></linearGradient><linearGradient id="Fade_to_Black_1-2" x1="1374.49" y1="285" x2="1374.49" y2="997.51" xlink:href="#Fade_to_Black_1"/><linearGradient id="Fade_to_Black_1-3" x1="700" y1="285" x2="700" y2="997.51" xlink:href="#Fade_to_Black_1"/><radialGradient id="radial-gradient" cx="1526.23" cy="693.62" r="257.51" gradientTransform="translate(-963.5 798.8) scale(1.35 0.14)" gradientUnits="userSpaceOnUse"><stop offset="0" stop-color="#231f20"/><stop offset="0.02" stop-color="#231f20" stop-opacity="0.96"/><stop offset="0.33" stop-color="#231f20" stop-opacity="0.42"/><stop offset="0.65" stop-color="#231f20" stop-opacity="0.1"/><stop offset="1" stop-color="#231f20" stop-opacity="0"/></radialGradient><linearGradient id="linear-gradient-2" x1="1028.82" y1="885" x2="1077.94" y2="808.46" gradientTransform="matrix(-0.43, 0.9, 0.9, 0.43, 463.05, -558.98)" gradientUnits="userSpaceOnUse"><stop offset="0" stop-color="#a41f24"/><stop offset="0.12" stop-color="#b71f24" stop-opacity="0.74"/><stop offset="0.24" stop-color="#c71f24" stop-opacity="0.52"/><stop offset="0.37" stop-color="#d51f24" stop-opacity="0.33"/><stop offset="0.51" stop-color="#e01f24" stop-opacity="0.18"/><stop offset="0.65" stop-color="#e71f24" stop-opacity="0.08"/><stop offset="0.81" stop-color="#ec1f24" stop-opacity="0.02"/><stop offset="1" stop-color="#ed1f24" stop-opacity="0"/></linearGradient><linearGradient id="linear-gradient-3" x1="1211.11" y1="159.01" x2="1194.29" y2="136.56" gradientTransform="matrix(0.57, 0.82, -0.82, 0.57, 226.63, -333.51)" gradientUnits="userSpaceOnUse"><stop offset="0" stop-color="#f15a24"/><stop offset="0.04" stop-color="#f15a24" stop-opacity="0.9"/><stop offset="0.14" stop-color="#f15a24" stop-opacity="0.69"/><stop offset="0.24" stop-color="#f15a24" stop-opacity="0.51"/><stop offset="0.35" stop-color="#f15a24" stop-opacity="0.35"/><stop offset="0.46" stop-color="#f15a24" stop-opacity="0.22"/><stop offset="0.58" stop-color="#f15a24" stop-opacity="0.13"/><stop offset="0.7" stop-color="#f15a24" stop-opacity="0.05"/><stop offset="0.83" stop-color="#f15a24" stop-opacity="0.01"/><stop offset="1" stop-color="#f15a24" stop-opacity="0"/></linearGradient><linearGradient id="linear-gradient-4" x1="-1077.93" y1="-685.07" x2="-1055.53" y2="-719.97" gradientTransform="matrix(0.88, 0.47, 0.47, -0.88, 1897.64, 695.61)" xlink:href="#linear-gradient-2"/><linearGradient id="linear-gradient-5" x1="-1192.61" y1="-898.19" x2="-1200.28" y2="-908.43" gradientTransform="translate(2113.59 940.76) rotate(-32.16)" xlink:href="#linear-gradient-3"/><linearGradient id="linear-gradient-6" x1="-36.22" y1="1239.06" x2="-13.81" y2="1204.15" gradientTransform="matrix(0.3, 0.95, 0.95, -0.3, -679.03, 1111.37)" xlink:href="#linear-gradient-2"/><linearGradient id="linear-gradient-7" x1="994.58" y1="-958.39" x2="986.91" y2="-968.63" gradientTransform="translate(-697.71 1437.54) rotate(12.49)" xlink:href="#linear-gradient-3"/><linearGradient id="linear-gradient-8" x1="-84.74" y1="857.73" x2="-62.34" y2="822.82" gradientTransform="matrix(0.3, 0.95, 0.95, -0.3, -679.03, 1111.37)" xlink:href="#linear-gradient-2"/><linearGradient id="linear-gradient-9" x1="640.1" y1="-809.7" x2="632.43" y2="-819.94" gradientTransform="translate(-697.71 1437.54) rotate(12.49)" xlink:href="#linear-gradient-3"/><linearGradient id="linear-gradient-10" x1="1074.05" y1="210.26" x2="1096.46" y2="175.35" gradientTransform="matrix(-0.37, 0.93, 0.93, 0.37, 429.95, -454.74)" xlink:href="#linear-gradient-2"/><linearGradient id="linear-gradient-11" x1="658.94" y1="517.58" x2="651.28" y2="507.34" gradientTransform="matrix(0.62, 0.78, -0.78, 0.62, 210.02, -213.15)" xlink:href="#linear-gradient-3"/><linearGradient id="linear-gradient-12" x1="2532.34" y1="269.33" x2="2397.24" y2="328.68" gradientTransform="matrix(-0.63, 0.77, 0.77, 0.63, 2319.92, -1277.34)" gradientUnits="userSpaceOnUse"><stop offset="0" stop-color="#ed1f24" stop-opacity="0"/><stop offset="0.19" stop-color="#ec1f24" stop-opacity="0.02"/><stop offset="0.35" stop-color="#e71f24" stop-opacity="0.08"/><stop offset="0.49" stop-color="#e01f24" stop-opacity="0.18"/><stop offset="0.63" stop-color="#d51f24" stop-opacity="0.33"/><stop offset="0.76" stop-color="#c71f24" stop-opacity="0.52"/><stop offset="0.88" stop-color="#b71f24" stop-opacity="0.74"/><stop offset="1" stop-color="#a41f24"/></linearGradient><linearGradient id="linear-gradient-13" x1="2380.71" y1="200.83" x2="2514.52" y2="378.9" gradientTransform="matrix(-0.63, 0.77, 0.77, 0.63, 2319.92, -1277.34)" gradientUnits="userSpaceOnUse"><stop offset="0" stop-color="#7c1f83" stop-opacity="0"/><stop offset="0.2" stop-color="#7d1f81" stop-opacity="0.02"/><stop offset="0.37" stop-color="#7e1f7c" stop-opacity="0.09"/><stop offset="0.51" stop-color="#811f73" stop-opacity="0.2"/><stop offset="0.66" stop-color="#851f67" stop-opacity="0.36"/><stop offset="0.79" stop-color="#8a1f57" stop-opacity="0.57"/><stop offset="0.92" stop-color="#901f44" stop-opacity="0.82"/><stop offset="1" stop-color="#951f36"/></linearGradient><linearGradient id="linear-gradient-14" x1="2381.01" y1="200.6" x2="2514.82" y2="378.67" xlink:href="#linear-gradient-13"/><linearGradient id="linear-gradient-15" x1="2382.22" y1="199.7" x2="2516.03" y2="377.77" xlink:href="#linear-gradient-13"/><linearGradient id="linear-gradient-16" x1="2394.64" y1="190.36" x2="2528.45" y2="368.43" xlink:href="#linear-gradient-13"/><linearGradient id="linear-gradient-17" x1="2335.14" y1="235.07" x2="2468.95" y2="413.14" xlink:href="#linear-gradient-13"/><linearGradient id="linear-gradient-18" x1="2337.85" y1="233.04" x2="2471.66" y2="411.11" xlink:href="#linear-gradient-13"/><linearGradient id="linear-gradient-19" x1="-381.51" y1="-3633.04" x2="-381.51" y2="-3722.58" gradientTransform="matrix(0.77, 0.63, 0.63, -0.77, 3657.98, -1821.51)" xlink:href="#linear-gradient-13"/><linearGradient id="linear-gradient-20" x1="435.82" y1="2831.2" x2="300.71" y2="2890.55" gradientTransform="translate(3247.14 -1277.34) rotate(50.7)" xlink:href="#linear-gradient-12"/><linearGradient id="linear-gradient-21" x1="284.18" y1="2762.71" x2="417.99" y2="2940.77" gradientTransform="translate(3247.14 -1277.34) rotate(50.7)" xlink:href="#linear-gradient-13"/><linearGradient id="linear-gradient-22" x1="284.49" y1="2762.47" x2="418.3" y2="2940.54" gradientTransform="translate(3247.14 -1277.34) rotate(50.7)" xlink:href="#linear-gradient-13"/><linearGradient id="linear-gradient-23" x1="285.69" y1="2761.57" x2="419.5" y2="2939.64" gradientTransform="translate(3247.14 -1277.34) rotate(50.7)" xlink:href="#linear-gradient-13"/><linearGradient id="linear-gradient-24" x1="298.11" y1="2752.23" x2="431.92" y2="2930.3" gradientTransform="translate(3247.14 -1277.34) rotate(50.7)" xlink:href="#linear-gradient-13"/><linearGradient id="linear-gradient-25" x1="238.61" y1="2796.94" x2="372.43" y2="2975.01" gradientTransform="translate(3247.14 -1277.34) rotate(50.7)" xlink:href="#linear-gradient-13"/><linearGradient id="linear-gradient-26" x1="241.32" y1="2794.91" x2="375.13" y2="2972.98" gradientTransform="translate(3247.14 -1277.34) rotate(50.7)" xlink:href="#linear-gradient-13"/><linearGradient id="linear-gradient-27" x1="2180.37" y1="-1536.51" x2="2180.37" y2="-1626.06" gradientTransform="translate(1909.08 -1821.51) rotate(140.7)" xlink:href="#linear-gradient-13"/><linearGradient id="linear-gradient-28" x1="-5969.62" y1="-3224.42" x2="-5890.16" y2="-3348.21" gradientTransform="matrix(-0.71, 0.71, 0.71, 0.71, -956.31, 7351.25)" xlink:href="#linear-gradient-2"/><linearGradient id="linear-gradient-29" x1="4213.21" y1="784.53" x2="4263.12" y2="812.69" gradientTransform="translate(139.8 5056.02) rotate(-90)" gradientUnits="userSpaceOnUse"><stop offset="0" stop-color="#951f36"/><stop offset="0.08" stop-color="#901f44" stop-opacity="0.82"/><stop offset="0.21" stop-color="#8a1f57" stop-opacity="0.57"/><stop offset="0.34" stop-color="#851f67" stop-opacity="0.36"/><stop offset="0.49" stop-color="#811f73" stop-opacity="0.2"/><stop offset="0.63" stop-color="#7e1f7c" stop-opacity="0.09"/><stop offset="0.8" stop-color="#7d1f81" stop-opacity="0.02"/><stop offset="1" stop-color="#7c1f83" stop-opacity="0"/></linearGradient><linearGradient id="linear-gradient-30" x1="-3379.18" y1="-5605.87" x2="-3299.73" y2="-5729.66" gradientTransform="matrix(-0.99, 0.12, 0.12, 0.99, -1658.18, 6803.51)" xlink:href="#linear-gradient-2"/><linearGradient id="linear-gradient-31" x1="4258.69" y1="874.67" x2="4262.11" y2="928.43" xlink:href="#linear-gradient-29"/><linearGradient id="linear-gradient-32" x1="-6265.14" y1="1011.28" x2="-6185.68" y2="887.48" gradientTransform="matrix(0, 1, 1, 0, -78.61, 7130.7)" xlink:href="#linear-gradient-2"/><linearGradient id="linear-gradient-33" x1="-6215.04" y1="933.93" x2="-6278.98" y2="992.75" gradientTransform="matrix(0, 1, 1, 0, -78.61, 7130.7)" xlink:href="#linear-gradient-29"/><linearGradient id="linear-gradient-34" x1="842.81" y1="1593.64" x2="891.94" y2="1517.1" gradientTransform="matrix(-0.65, 0.76, 0.76, 0.65, 493.62, -1039.69)" xlink:href="#linear-gradient-2"/><linearGradient id="linear-gradient-35" x1="1731.73" y1="-356.46" x2="1714.92" y2="-378.92" gradientTransform="translate(207.42 -882.13) rotate(70.38)" xlink:href="#linear-gradient-3"/><linearGradient id="linear-gradient-36" x1="1068.35" y1="780.61" x2="1149.22" y2="780.61" gradientUnits="userSpaceOnUse"><stop offset="0" stop-color="#f15a24" stop-opacity="0"/><stop offset="0.17" stop-color="#f15a24" stop-opacity="0.01"/><stop offset="0.3" stop-color="#f15a24" stop-opacity="0.05"/><stop offset="0.42" stop-color="#f15a24" stop-opacity="0.13"/><stop offset="0.54" stop-color="#f15a24" stop-opacity="0.22"/><stop offset="0.65" stop-color="#f15a24" stop-opacity="0.35"/><stop offset="0.76" stop-color="#f15a24" stop-opacity="0.51"/><stop offset="0.86" stop-color="#f15a24" stop-opacity="0.69"/><stop offset="0.96" stop-color="#f15a24" stop-opacity="0.9"/><stop offset="1" stop-color="#f15a24"/></linearGradient><linearGradient id="linear-gradient-37" x1="1181.55" y1="780.49" x2="1261.16" y2="780.49" gradientTransform="matrix(1, 0, 0, 1, 0, 0)" xlink:href="#linear-gradient-2"/><radialGradient id="radial-gradient-2" cx="1143.73" cy="782.54" r="39.67" gradientTransform="translate(0 -6445.65) scale(1 9.24)" xlink:href="#linear-gradient-3"/><linearGradient id="linear-gradient-38" x1="1103.17" y1="697.1" x2="1211.14" y2="813.49" gradientTransform="matrix(1, 0, 0, 1, 0, 0)" xlink:href="#linear-gradient-2"/><linearGradient id="linear-gradient-39" x1="1024.69" y1="780.63" x2="1147.17" y2="780.63" gradientTransform="matrix(1, 0, 0, 1, 0, 0)" xlink:href="#linear-gradient-12"/><linearGradient id="linear-gradient-40" x1="1183.53" y1="780.39" x2="1304.82" y2="780.39" gradientTransform="matrix(1, 0, 0, 1, 0, 0)" xlink:href="#linear-gradient-2"/><linearGradient id="Brick_6" x1="-263.54" y1="852.18" x2="-313.05" y2="852.18" gradientTransform="matrix(-1, 0, 0, 1, 736.6, 0.57)" gradientUnits="userSpaceOnUse"><stop offset="0" stop-color="#efebe7"/><stop offset="0.49" stop-color="#e9e4db"/><stop offset="1" stop-color="#c9cacc"/></linearGradient><linearGradient id="Brick_6-2" x1="-321.77" y1="852.17" x2="-337.95" y2="852.17" xlink:href="#Brick_6"/><linearGradient id="linear-gradient-41" x1="1063.63" y1="819.93" x2="1057.11" y2="819.93" gradientUnits="userSpaceOnUse"><stop offset="0" stop-color="#231f20" stop-opacity="0"/><stop offset="0.33" stop-color="#231f20" stop-opacity="0.15"/><stop offset="0.72" stop-color="#231f20" stop-opacity="0.58"/><stop offset="1" stop-color="#231f20"/></linearGradient><linearGradient id="linear-gradient-42" x1="1062.92" y1="884.92" x2="1051.35" y2="884.92" xlink:href="#linear-gradient-41"/><clipPath id="clip-path"><rect class="cls-1" width="1400" height="293.58"/></clipPath><linearGradient id="Fade_to_Black_2" x1="1073.87" y1="29.54" x2="1079.37" y2="95.54" gradientUnits="userSpaceOnUse"><stop offset="0" stop-color="#231f20"/><stop offset="1" stop-color="#231f20" stop-opacity="0"/></linearGradient><linearGradient id="Fade_to_Black_2-2" x1="1014.95" y1="34.45" x2="1020.45" y2="100.45" xlink:href="#Fade_to_Black_2"/><linearGradient id="Fade_to_Black_2-3" x1="307.73" y1="16.83" x2="301.23" y2="97.83" xlink:href="#Fade_to_Black_2"/><linearGradient id="Fade_to_Black_2-4" x1="364.49" y1="21.39" x2="357.99" y2="102.39" xlink:href="#Fade_to_Black_2"/><linearGradient id="linear-gradient-43" x1="-5748.02" y1="695.44" x2="-5689.45" y2="604.19" gradientTransform="translate(664.12 6559.46) rotate(103.05)" xlink:href="#linear-gradient-2"/><linearGradient id="linear-gradient-44" x1="1282.84" y1="3415.5" x2="1319.64" y2="3436.26" gradientTransform="matrix(0.85, -0.53, -0.53, -0.85, 2031.52, 4414.76)" xlink:href="#linear-gradient-29"/></defs><g id="BACKGROUND"><rect class="cls-2" width="1400" height="980"/><path class="cls-3" d="M0,282.07V298.2a256,256,0,0,0,31.26,5A215,215,0,0,1,0,282.07Z"/><path class="cls-4" d="M1349,303.16c20.13-2.18,38.69-5.3,51-12.1V262.29C1387.36,278.06,1369.82,291.42,1349,303.16Z"/><path class="cls-5" d="M1310.3,344.62c18.47,4.82,39.61,3.94,62.19,0-16.19,15.06-37.42,25.17-62.19,31.78a153.31,153.31,0,0,0,48.48,4.47c-20.33,19-51.91,21.68-87.86,18,14.4,8.87,32.51,12.22,55.28,8.64-19.89,9-46.37,14.79-76,19,22.91,2.78,44.21,3.06,61.84-2.42-4.68,12.72-18.56,22.19-33.86,31.78,26.31-6.79,47.87-18,63.91-34.2-2.89,18.55-6.7,24.63-16.56,37.77-1.9,2.13-3.88,4.22-5.88,6.31-19.45,19-54,21.48-85.69,14.65,15.6,8.2,34.31,14.39,55.26,12.05-.82.85-1.67,1.65-2.53,2.45q-6.09,4.63-12.55,9.11c-24.43,13.7-59,14.57-91,7.65,15.61,8.2,33.76,14.79,53.88,15.34q-14.22,7.87-29.63,15.24c37.69.16,71.93-6.48,100-25.17-11,20.3-34.86,35.93-60.38,45,18.35-1.27,38.44-6.19,55.51-20.55a185.74,185.74,0,0,1-40.2,48.12c-19.53,7.52-43.09,9.73-66.17,7.87a80.92,80.92,0,0,0,25.55-8.75c-23.88,5.15-49.94,3.29-64.61-11-1.51-1.58-3-3.15-4.44-4.76-7.43-9.91-10.31-14.49-12.49-28.48,12.09,12.25,28.36,20.67,48.19,25.79-11.54-7.23-22-14.37-25.53-24,13.29,4.13,29.36,3.92,46.63,1.82-22.34-3.17-42.31-7.52-57.31-14.33,17.17,2.7,30.82.17,41.68-6.51-27.11,2.79-50.92.78-66.25-13.56a115.6,115.6,0,0,0,36.55-3.37c-18.68-5-34.68-12.61-46.89-24,17,3,33,3.63,46.89,0-30.58-8.84-56.64-20.81-69.81-41.68,9.19,6,24.23,8.64,40.64,10.42-26-14.67-45.26-32.68-52.1-56.79-6.84,24.11-26.07,42.12-52.1,56.79,16.41-1.78,31.45-4.37,40.64-10.42-13.18,20.87-39.23,32.84-69.82,41.68,13.93,3.63,29.87,3,46.89,0-12.21,11.35-28.21,19-46.89,24a115.6,115.6,0,0,0,36.55,3.37c-15.33,14.34-39.14,16.35-66.25,13.56,10.86,6.69,24.51,9.22,41.68,6.51-15,6.81-35,11.15-57.31,14.33,17.27,2.1,33.34,2.31,46.63-1.82-3.53,9.59-14,16.74-25.53,24,19.84-5.12,36.1-13.54,48.19-25.79-2.18,14-5.05,18.57-12.49,28.48-1.43,1.61-2.93,3.18-4.44,4.76C994,592,968,593.89,944.13,588.77c-1.25-.68-2.5-1.35-3.74-2,17.06-.47,32.46-6.05,45.7-13-27.21,5.86-56.49,5.13-77.22-6.49q-5.48-3.8-10.65-7.73c-.73-.68-1.46-1.36-2.15-2.08,17.77,2,33.64-3.27,46.88-10.22-26.87,5.79-56.19,3.7-72.69-12.43-1.7-1.77-3.38-3.55-5-5.35-8.36-11.15-11.59-16.31-14-32,13.61,13.79,31.9,23.25,54.22,29-13-8.14-24.75-16.17-28.72-27,15,4.65,33,4.41,52.46,2.05-25.14-3.57-47.6-8.46-64.48-16.12,19.32,3,34.68.19,46.89-7.33-30.5,3.14-57.29.88-74.54-15.26A130.06,130.06,0,0,0,878.19,459c-21-5.61-39-14.19-52.75-27,19.15,3.34,37.09,4.08,52.75,0-34.4-9.95-63.72-23.41-78.55-46.89,10.34,6.8,27.26,9.72,45.72,11.72-29.28-16.51-50.92-36.77-58.62-63.89-7.7,27.12-29.33,47.39-58.62,63.89,18.46-2,35.38-4.92,45.72-11.72C759,408.62,729.71,422.08,695.31,432c15.67,4.08,33.6,3.34,52.75,0-13.74,12.77-31.74,21.35-52.75,27a130.06,130.06,0,0,0,41.12,3.79c-17.25,16.14-44,18.4-74.54,15.26,12.22,7.52,27.58,10.37,46.89,7.33-16.88,7.66-39.34,12.55-64.48,16.12,19.43,2.36,37.51,2.6,52.46-2.05-4,10.79-15.74,18.83-28.72,27,22.32-5.76,40.61-15.23,54.22-29-2.45,15.73-5.69,20.9-14,32-1.61,1.81-3.29,3.58-5,5.35-16.5,16.13-45.82,18.22-72.69,12.43,13.24,7,29.11,12.21,46.88,10.22-.69.72-1.42,1.4-2.15,2.08q-5.17,3.93-10.65,7.73c-20.73,11.62-50,12.36-77.22,6.49,13.24,7,28.64,12.54,45.7,13Q621,593.42,608,599.67c32,.13,61-5.5,84.87-21.35-9.32,17.22-29.57,30.48-51.22,38.16,15.57-1.08,32.61-5.25,47.09-17.43a157.56,157.56,0,0,1-34.11,40.82c-17.61,6.78-39.08,8.47-59.82,6.34,12.22,4.8,26,8.34,40.65,8.2a262.68,262.68,0,0,1-40.37,22.05,228.9,228.9,0,0,0,40.85-6.4c-10.26,10.6-26.6,21-44.51,31.3-11.92.58-23.36-1.92-30.61-9-1-1-2-2.1-3-3.17-4.95-6.6-6.86-9.65-8.32-19,8.05,8.16,18.88,13.76,32.09,17.17-7.68-4.82-14.65-9.57-17-16,8.85,2.75,19.55,2.61,31.05,1.21-14.88-2.11-28.18-5-38.16-9.54,11.43,1.8,20.52.12,27.76-4.34-18.05,1.86-33.91.52-44.12-9a77,77,0,0,0,24.34-2.25c-12.44-3.32-23.09-8.4-31.22-16,11.34,2,22,2.42,31.22,0-20.36-5.89-37.72-13.85-46.49-27.76,6.12,4,16.14,5.75,27.06,6.94C528.72,601,515.92,589,511.36,572.9,506.81,589,494,601,476.67,610.72c10.93-1.19,20.94-2.91,27.06-6.94-8.77,13.9-26.13,21.87-46.49,27.76,9.27,2.42,19.89,2,31.23,0-8.13,7.56-18.79,12.64-31.23,16a77,77,0,0,0,24.34,2.25c-10.21,9.55-26.07,10.89-44.12,9,7.23,4.45,16.32,6.14,27.76,4.34-10,4.53-23.29,7.43-38.16,9.54,11.5,1.4,22.2,1.54,31.05-1.21-2.35,6.39-9.32,11.14-17,16,13.21-3.41,24-9,32.09-17.17-1.45,9.31-3.37,12.37-8.32,19-1,1.07-1.95,2.12-3,3.17-9.77,9.54-27.12,10.78-43,7.36,7.83,4.12,17.23,7.23,27.75,6.05-.41.43-.84.83-1.27,1.23q-3.06,2.33-6.3,4.57c-7.83,4.39-17.72,6.15-28,5.95-3-1.78-5.92-3.59-8.73-5.48,11.51.11,22.29-2.66,31.86-6.42-16.26,1.68-33.09.35-46.89-5a123.5,123.5,0,0,1-26.73-32c11.35,9.54,24.71,12.81,36.91,13.66-17-6-32.84-16.41-40.14-29.91,18.7,12.43,41.46,16.84,66.52,16.73q-10.25-4.9-19.7-10.13c13.37-.37,25.44-4.75,35.82-10.2-21.33,4.6-44.28,4-60.52-5.09q-4.3-3-8.34-6.05c-.57-.53-1.14-1.06-1.68-1.63,13.93,1.56,26.37-2.56,36.74-8-21.06,4.54-44,2.9-57-9.74-1.33-1.39-2.65-2.78-3.91-4.2-6.55-8.74-9.09-12.78-11-25.11,10.66,10.81,25,18.22,42.5,22.74-10.17-6.38-19.4-12.68-22.51-21.13,11.72,3.64,25.89,3.46,41.12,1.61-19.7-2.8-37.31-6.63-50.54-12.63,15.14,2.39,27.18.15,36.75-5.74-23.9,2.46-44.9.69-58.42-12a101.94,101.94,0,0,0,32.23-3c-16.47-4.4-30.58-11.12-41.35-21.13,15,2.62,29.07,3.2,41.35,0-27-7.8-49.94-18.35-61.56-36.75,8.11,5.33,21.37,7.62,35.83,9.19-23-12.94-39.91-28.82-45.94-50.08-6,21.26-23,37.14-45.94,50.08,14.47-1.57,27.73-3.85,35.83-9.19-11.62,18.41-34.6,29-61.56,36.75,12.28,3.2,26.34,2.62,41.35,0-10.77,10-24.88,16.73-41.35,21.13a101.94,101.94,0,0,0,32.23,3c-13.52,12.65-34.52,14.42-58.42,12,9.58,5.9,21.61,8.13,36.75,5.74-13.23,6-30.83,9.83-50.54,12.63,15.23,1.85,29.4,2,41.12-1.61-3.11,8.46-12.34,14.76-22.51,21.13,17.49-4.52,31.83-11.94,42.5-22.74-1.92,12.33-4.46,16.38-11,25.11-1.26,1.42-2.58,2.81-3.91,4.2-8.59,8.4-21.63,11.92-35.58,12a304.92,304.92,0,0,1-42.16-23.53c17.3.17,33.52-4,47.92-9.66-24.45,2.52-49.76.52-70.52-7.47a185.73,185.73,0,0,1-40.2-48.12c17.07,14.35,37.16,19.27,55.51,20.55-25.52-9.06-49.39-24.68-60.38-45,28.12,18.69,62.36,25.33,100,25.17q-15.42-7.37-29.63-15.24c20.11-.55,38.27-7.14,53.88-15.34-32.08,6.91-66.6,6-91-7.65q-6.46-4.47-12.55-9.11c-.86-.8-1.72-1.6-2.53-2.45,20.95,2.34,39.66-3.85,55.26-12.05-31.67,6.83-66.24,4.36-85.69-14.65-2-2.09-4-4.18-5.88-6.31-9.86-13.14-13.67-19.22-16.56-37.77,16,16.25,37.61,27.41,63.91,34.2-15.3-9.59-29.18-19.06-33.86-31.78,17.63,5.48,38.93,5.2,61.84,2.42-29.63-4.21-56.11-10-76-19,22.77,3.59,40.88.23,55.28-8.64-36,3.7-67.53,1-87.86-18A153.31,153.31,0,0,0,70,376.41c-24.77-6.62-46-16.73-62.19-31.78,22.58,3.94,43.72,4.82,62.19,0-27.1-7.83-51.52-17.53-70-31.35V920.89H133.52c-27.76-11.23-43.4-31.25-45.36-53a128.34,128.34,0,0,0,17.29,5.66c16.07,8.4,34.74,13.45,55.25,16.1a114.52,114.52,0,0,1-28.59,12c19.36-.6,37-3.42,51.75-10,2.1.1,4.2.2,6.32.26-1.41-.39-2.8-.8-4.18-1.22a72.29,72.29,0,0,0,14.11-8.81c.31,15.93-10.26,30.93-30.32,39.05H397.65c-19.89-8-30.43-22.86-30.31-38.64l1,.35c12.28,9.49,27.84,14.73,45.53,17.23a94.08,94.08,0,0,1-17,6.49c11.82-.37,22.79-1.83,32.45-5,2,.11,4,.21,6,.27-1.22-.34-2.43-.71-3.63-1.08a57.81,57.81,0,0,0,16.53-9.12c.23,12-7.75,23.36-22.9,29.49H597.41c-15.15-6.13-23.13-17.46-22.9-29.49,12.93,10.39,30.88,14.29,51.35,14.92-9.12-2.55-17.48-6.16-23.77-10.46,30.93-1.88,58-8.73,78-24.79.39,20.32-13.09,39.47-38.69,49.82H932.12c-25.6-10.36-39.08-29.5-38.69-49.82,11.45,9.2,25.26,15.37,40.76,19.33A144.68,144.68,0,0,1,910.92,899c14.53-.45,28.21-2,40.65-5.17a249.66,249.66,0,0,0,28.61,2.43,173.6,173.6,0,0,1-17.34-5.85A87.05,87.05,0,0,0,988,876.6c.35,18.06-11.64,35.08-34.39,44.29h258.42c-22.75-9.21-34.73-26.22-34.39-44.29a85,85,0,0,0,21.65,12.45q-4.55,1.5-9.26,2.82,7.51-.23,14.78-.77c14.8,5,31.69,7.35,49.94,7.91a138.94,138.94,0,0,1-27.19-10.58c22.08-3.63,41.8-10.33,58.12-21.42q3.26-.83,6.55-1.84c-.87,22.82-16.63,44-45.53,55.73H1400V293.58C1381.78,318.67,1348.73,333.51,1310.3,344.62Zm-20.94,148.25.24-.48.47-.06ZM677.55,557.79l.21-.4.4-.05ZM369.15,636l.16.32-.48-.36ZM90.64,492.4l.25.48-.72-.54ZM198.29,636l.31,0-.48.36Zm-32.08-5.58c9.31,4.18,20,6.93,31.81,5.62-.54.56-1.11,1.1-1.68,1.63q-4,3.08-8.34,6.05a59,59,0,0,1-16.24,6c-12.71-8.08-23.82-16.22-31.81-24.47A253.28,253.28,0,0,0,166.22,630.41Zm-17.28,21.12a124.2,124.2,0,0,1-21.46-2.73c10.38,5.45,22.45,9.83,35.82,10.2-5.15,2.85-10.52,5.61-16,8.31-15.37-9.37-34.23-23.24-37.94-36.62A202.38,202.38,0,0,0,148.94,651.53Zm-4.75,72.68c-3.33,1.68-6.72,3.33-10.24,4.9a227.88,227.88,0,0,1-26-16.94A184.84,184.84,0,0,0,144.19,724.21Zm19,72.5c-2.63-1.7-5.22-3.44-7.75-5.24a116.2,116.2,0,0,0,13-2.75q3.35.68,6.71,1.27Q169.45,793.51,163.24,796.7ZM164.6,808a100,100,0,0,1-18.16,11.63c-4.54-2.11-9-4.38-13.24-6.83A92.21,92.21,0,0,0,161,806.92C162.21,807.28,163.4,807.62,164.6,808Zm3.17-42.34c-.71.46-1.46.88-2.2,1.3q-6.57-3.47-12.7-7.48a162.68,162.68,0,0,0,19.2-3q2.43.41,4.9.75C174,760.07,171,762.9,167.76,765.62ZM150.61,758A140.28,140.28,0,0,1,138,748.31c1.24-.28,2.48-.56,3.71-.87a121.54,121.54,0,0,0,16.94,6C155.54,755.32,152.71,756.85,150.61,758Zm-6.27,24.4-.41.24-.44-.35H144Zm5.17-45.15q-7.9-3.8-15.31-7.94A186.92,186.92,0,0,0,156,726.38q3.21.47,6.44.83A117.27,117.27,0,0,1,149.51,737.19Zm-12.61,8-1.43.85c-1.35-1.23-2.71-2.45-4-3.73C133.23,743.29,135.05,744.24,136.89,745.16ZM88,866.82c-.11-1.55-.15-3.1-.12-4.66,2.13,1.71,4.35,3.3,6.62,4.84Q91.29,867,88,866.82Zm-.82-95.17c21,13.08,41.78,23.92,62.3,31.42q-9.69,4.05-20.26,7.36C112.44,800.17,98,787.25,87.23,771.64Zm33.86,73.24q5.67,1.71,11.37,3.16c-1.18.55-2.35,1.11-3.56,1.63,2.21-.2,4.44-.51,6.66-.86a230,230,0,0,0,25.61,4.73,139.22,139.22,0,0,1-28.35,9.51C126.87,857.39,122.75,851.28,121.08,844.88Zm47,39.46a152.42,152.42,0,0,1-17.09-8.2,161,161,0,0,0,27-5.79C176.76,875.34,173.22,880.05,168.12,884.35Zm1.8-138.24c-3.53-1.4-7-2.83-10.43-4.32a134.55,134.55,0,0,0,26-13.6h.31C183.93,734.39,177.25,740.74,169.92,746.11Zm20,88c-2.62-.57-5.21-1.2-7.78-1.86,6.1-3.2,12.23-6.74,18.39-10.58A84.16,84.16,0,0,1,190,834.1Zm16.92-165.45a123.49,123.49,0,0,1-26.73,32c-.85.33-1.74.59-2.61.89-15.23-2.21-29.39-6.78-41-14.17a237.07,237.07,0,0,1-17.75-16.55,239.83,239.83,0,0,0,49.25,7.9S160.18,675,150.16,669c13.6-.4,26.45-2.26,38.26-6.19,2.53.48,5.07.94,7.63,1.35l-4.34-2.49a89.24,89.24,0,0,0,18.41-9.31c-7.3,13.5-23.18,23.89-40.14,29.91C182.18,681.46,195.53,678.19,206.88,668.64Zm240,37.09.24,0-.36.27Zm-33.29,21c-1.89,1-3.83,1.93-5.78,2.88a73.11,73.11,0,0,1-5.85-5.36C405.7,725.26,409.6,726.06,413.56,726.77ZM438.07,750c-1.58,1.55-3.21,3.08-4.92,4.55a64.57,64.57,0,0,1-15.75,3.69c-8.71-4.51-32.34-17.74-35.83-30.32C398.88,739.66,417.84,746.66,438.07,750ZM421.8,763.16c-3.87,2.6-8,5.06-12.32,7.38a56.83,56.83,0,0,1-9.81-4.93,157.66,157.66,0,0,1-11.8-11,169.68,169.68,0,0,0,20.93,4.17,95.94,95.94,0,0,1-11.07-.48A64.19,64.19,0,0,0,421.8,763.16Zm.29,9.27c-.47.48-1,1-1.51,1.44q-1.19-.26-2.36-.56C419.52,773,420.82,772.75,422.09,772.43ZM404,789.94a114.77,114.77,0,0,0,16.27,2.49,129.92,129.92,0,0,1-11.53,6.5c-4.7-2.25-9.24-4.62-13.54-7.16Q399.62,791,404,789.94Zm8,18.9a61.54,61.54,0,0,1-6.12,1.46,90.7,90.7,0,0,1-9.6-8.17A77.81,77.81,0,0,0,412,808.84Zm.19,22.11c-1.09.47-2.15,1-3.26,1.42-1.65-1.25-3.27-2.52-4.85-3.84C406.77,829.43,409.48,830.23,412.19,831Zm5.44,7.51q-1.64-1.06-3.25-2.16a60.08,60.08,0,0,0,7.93-3l1.5.27A69.81,69.81,0,0,1,417.64,838.46Zm2.83,12.68c-2.29,1.91-4.7,3.69-7.18,5.42-1.73-.68-3.44-1.39-5.13-2.14A110,110,0,0,0,420.47,851.14Zm3.32-47.51c-.59.37-1.19.72-1.8,1.07-4.37-1.73-8.62-3.55-12.72-5.49a122,122,0,0,0,23.44-3.89A119.06,119.06,0,0,1,423.79,803.63Zm.16-20.78,1.26-.61a70.69,70.69,0,0,0,8.25-.42,42.39,42.39,0,0,1-4.26,4.11C427.44,784.91,425.67,783.89,424,782.85Zm14.2,33.24a111.67,111.67,0,0,1-10.05,6.76q-2-.85-4-1.76A94.1,94.1,0,0,0,438.15,816.09Zm-1.88-40.15c.4-.26.8-.49,1.2-.76-.07.27-.17.54-.27.81Zm-36.87,12.88q-2.3,1.36-4.66,2.71a148.31,148.31,0,0,1-14.06-9.42A124.73,124.73,0,0,0,399.39,788.82Zm-32.52,32.84a257.28,257.28,0,0,0,28.6,15.59q-3.49,1.11-7.1,2.11a91.67,91.67,0,0,0,11.26-.26q5.22,2.24,10.4,4.07a91.77,91.77,0,0,1-12.84,5.68C385,841.81,374.56,832.75,366.87,821.66Zm22.51,48.7a170.24,170.24,0,0,0,17.45,4.31,114.09,114.09,0,0,1-13.55,3.4A22.4,22.4,0,0,1,389.39,870.35Zm30.61,26a90,90,0,0,1-16.17-8.58,115.55,115.55,0,0,0,27.74-5C430.27,887.7,426,892.31,420,896.3Zm12-33.86q-4.9-1.19-9.65-2.69a182.85,182.85,0,0,0,26.24-13.8A67.1,67.1,0,0,1,432,862.44Zm21.37-132a91,91,0,0,1-15,19.32c-11-6.28-21.28-12.59-29.26-19a115.86,115.86,0,0,0,19.42-1.91c1.8.17,3.59.36,5.42.49-.82-.36-1.59-.75-2.4-1.12a71.84,71.84,0,0,0,24.23-10.07c-5.52,10.19-17.5,18-30.32,22.59C434.68,740.07,444.77,737.6,453.34,730.4Zm137.19,52.76q4-.14,7.9-.48a105.28,105.28,0,0,0,17.71,6.59c-3.37,1.84-6.84,3.55-10.41,5.15C600.77,791.48,594.8,787.48,590.52,783.16Zm8.28,14.17c-1.61.63-3.25,1.23-4.89,1.82-1.33-1.25-2.63-2.52-3.89-3.82C592.86,796.08,595.83,796.75,598.81,797.32Zm-10.68-16.88a15.64,15.64,0,0,1-2.86-5.27c2.18,1.47,4.4,2.81,6.64,4.09C590.65,779.67,589.39,780.06,588.12,780.45Zm12.51-8c2.15.55,4.35,1,6.58,1.47q-1.79.68-3.59,1.35C602.56,774.31,601.55,773.37,600.64,772.43Zm32.54,30.63q-5.06,4.22-10.49,8.08A66.63,66.63,0,0,1,611,808.92,186.39,186.39,0,0,0,633.18,803.05Zm-13-16.13c-3.26-2-6.34-4-9.19-6a103.33,103.33,0,0,0,32.15-11.58A119.43,119.43,0,0,1,620.17,786.92Zm-5.87-15.83a146.69,146.69,0,0,1-13.38-7.93A64.19,64.19,0,0,0,625,758.31a87.68,87.68,0,0,1-24.89-.85,150.11,150.11,0,0,0,63-13.63C649.11,754.4,632.67,763.52,614.31,771.1Zm-38.43-65.36.12.24-.36-.27Zm41.31,25q-7.74-3.7-14.88-7.65c10.1-.28,19.21-3.58,27.05-7.7-16.11,3.47-33.44,3-45.71-3.84q-3.24-2.25-6.3-4.57c-.43-.4-.86-.8-1.27-1.23,9.93,1.11,18.84-1.61,26.41-5.39a175.37,175.37,0,0,0,59.41-25.68c-5.47,19.73-49.82,40.74-49.82,40.74a203.47,203.47,0,0,0,41.78-6.7,201.15,201.15,0,0,1-15.06,14c-14.09,9-32.67,13-52,13.35-8.57-4.55-15.9-10.66-19.87-18C581.07,727.51,598.26,730.84,617.18,730.76Zm-47.79-.37a40.73,40.73,0,0,0,8.87,5.63q-2.77-.11-5.53-.32C571.55,734,570.43,732.21,569.39,730.4Zm8,119.73c-1.12-1.35-2.19-2.74-3.19-4.18q3.11,1.94,6.2,3.73C579.36,849.83,578.36,850,577.35,850.13ZM575,739a98.22,98.22,0,0,0,34.16,5q-9.16,5.63-19,10.78l-.58-.2A96.68,96.68,0,0,1,575,739Zm29.52,83.52q-2.7,1.48-5.48,2.89a116,116,0,0,1-14.48-9.27A92.21,92.21,0,0,0,604.54,822.47Zm16.68,16.42q-4.84,1.9-9.86,3.53a71.26,71.26,0,0,1-15-11.21A63.62,63.62,0,0,0,621.22,838.89Zm-21.31,55.38c-4.52-3.5-7.67-7.4-8.75-11.55a116.9,116.9,0,0,0,26,4.92A159.09,159.09,0,0,1,599.91,894.28Zm33.43-15.59c-14.15-2.17-27.49-6.69-38.65-13.62a165.75,165.75,0,0,0,18.57-.81,83.93,83.93,0,0,0,15,2.86c-2.64-1.16-5.19-2.42-7.68-3.73a208.29,208.29,0,0,0,31.32-7C649.81,864.54,643,872.1,633.34,878.69Zm-7.21-41.82a163.91,163.91,0,0,1-22.32-9q7.24-1.48,14.55-3.72a89.09,89.09,0,0,0,11.66-.36c-1.38-.7-2.71-1.43-4.06-2.16,18-6.38,36.26-15.82,54.69-27.31C667.66,813,648.55,827.23,626.14,836.87ZM986,597.8l.35,0-.54.4Zm-90.23-40.41.21.4-.61-.46Zm69.79,42.28q-10.45-5-20.23-10.27c11.5,5.85,25.16,10.13,40.38,8.43-.61.64-1.26,1.25-1.91,1.85q-4.59,3.49-9.46,6.87c-12.58,7.06-28.71,9.59-45.38,8.83-20.52-7.81-39.38-20.63-48.27-37.06C904.51,594.18,933.56,599.81,965.53,599.67ZM909.74,813.3a108.69,108.69,0,0,1-16.9-19q3.18,2,6.35,3.88l-1,.3c.53,0,1,0,1.57,0q10,6,19.91,11Q914.81,811.54,909.74,813.3Zm63.17-49.79q-5.7,4.32-12,8.28-2.38-1-4.72-2A143.17,143.17,0,0,0,972.91,763.51Zm-11.83-30.26c1.23-.3,2.45-.6,3.65-.92-.46.48-1,.92-1.42,1.4Zm-15.64-4.91a71.3,71.3,0,0,1-10.75-5.56c-.65-.55-1.26-1.13-1.9-1.69a156.65,156.65,0,0,0,17-6.61c4,.46,7.91.8,11.64,1,0,0-2.6-1.24-6.61-3.37a152.32,152.32,0,0,0,17.06-10C969.26,711.53,956.57,721.32,945.44,728.33Zm9.76,57.88c-.39.38-.8.74-1.2,1.12l-.45-.26C954.1,786.77,954.67,786.52,955.21,786.21Zm-4.9-8.28q-2.95,1.59-6,3.12c-2.94-2.11-5.79-4.33-8.52-6.69q1.74-.25,3.48-.53A102,102,0,0,0,950.31,777.93Zm-14.4-77.24c4.39-.8,8.7-1.68,12.88-2.75a84.45,84.45,0,0,1-7.15,6.5C939.76,703.26,937.84,702,935.91,700.69Zm8.43-24.37a91.19,91.19,0,0,1-6.77-6.26q9.11,2.33,18.83,3.87A103.09,103.09,0,0,1,944.34,676.33Zm-5.21,13.54c-3.3,2-6.71,3.88-10.2,5.74-7.44-5.81-13.95-12.34-16.6-18.82,1.87.73,3.79,1.42,5.73,2.07A171.38,171.38,0,0,0,939.13,689.87ZM932,711.63q-2.72,1.88-5.62,3.74c-2.31-2.17-4.57-4.37-6.75-6.63C923.66,709.81,927.82,710.77,932,711.63Zm-19.7-34.88a18.74,18.74,0,0,1-.71-2c1.14.78,2.3,1.52,3.45,2.27C914.14,676.89,913.22,676.84,912.31,676.75ZM934.4,752.4q-4,1.22-8.25,2.08a187.28,187.28,0,0,1-15.7-10.65A159.1,159.1,0,0,0,934.4,752.4Zm-13.23,70a168,168,0,0,0,17.85-4c1,.42,2.05.8,3.08,1.2q-5.8,4.49-12.12,8.48Q925.44,825.36,921.17,822.37ZM947.09,883a74.61,74.61,0,0,1-16.95-12.56,178.47,178.47,0,0,0,30.41-6.13l2.17.2C960.63,871.2,955,877.46,947.09,883Zm6.64-43.52A160.89,160.89,0,0,1,939,833,197.1,197.1,0,0,0,958.29,825q6.07,1.73,12.1,2.94A117,117,0,0,1,953.72,839.45ZM973.79,825c-2.52-1.29-5-2.61-7.44-4q8.19-4.23,16.44-9.18c1,.09,2,.2,3,.28A97.85,97.85,0,0,1,973.79,825ZM966,670.59a251.84,251.84,0,0,1-27.92-16.18c14.68.14,28.44-3.4,40.65-8.2-1.5.15-3,.24-4.51.36a63,63,0,0,0,21.51-11.74A139.79,139.79,0,0,1,966,670.59Zm-3.93-23.53c-15.26,0-30.25-2.21-43.17-7.18a157.56,157.56,0,0,1-34.11-40.82,72.87,72.87,0,0,0,30.91,15.06c-3.36-.48-6.71-1.08-10-1.79,11.77,6.18,25.46,11.15,40.62,11.57q-10.72,5.93-22.34,11.49c28.42.12,54.24-4.88,75.44-19C992.29,629.51,978.07,640,962.06,647.06Zm247.13,122.66q-2.18,1.05-4.41,2-6.28-3.94-12-8.25A143.36,143.36,0,0,0,1209.18,769.71Zm-15.36-67.65.61.4-.46,0C1193.93,702.36,1193.87,702.21,1193.83,702.07Zm7.15,30.26a189.85,189.85,0,0,0,28.81,5.33q-7.62,3.63-15.66,6.94A178.78,178.78,0,0,1,1201,732.32Zm-.9-20c2.86.12,5.76.15,8.69,0-1.8,1.1-3.62,2.19-5.44,3.27C1202.17,714.53,1201.08,713.42,1200.08,712.31Zm29.32-35.16a255,255,0,0,0,32-6.34,237,237,0,0,1-17.75,16.55,83,83,0,0,1-11.2,5.91c-5.27-2.94-10.34-6-15.14-9.24,13,.13,25.28-3,36.14-7.29A140.4,140.4,0,0,1,1229.4,677.15Zm-11.06,21.12-.87.22-.55-.55C1217.38,698.06,1217.87,698.15,1218.34,698.27Zm-4,89.9a87.63,87.63,0,0,0,9.31,4.09c-1.12.79-2.25,1.58-3.4,2.35-2.52-1.93-4.94-4-7.28-6.14ZM1232.91,820q-2.72,1.25-5.49,2.42-4.15-3-8.07-6.27C1223.83,817.64,1228.35,818.91,1232.91,820Zm-4.16-35.46c2.78-.8,5.56-1.64,8.32-2.56-1.64,1.37-3.32,2.71-5,4C1230.94,785.53,1229.84,785,1228.75,784.54Zm6.92-30.94c-2.53-.63-5-1.35-7.39-2.18a116,116,0,0,0,20.53-9.15A136,136,0,0,1,1235.67,753.6Zm-2.24-17.69c-3.73-2-9.25-5-15-8.77a173.32,173.32,0,0,0,21.8-3.89q5.68,1.55,11.5,2.72Q1242.95,731.2,1233.43,735.91Zm15-14.88a189.16,189.16,0,0,0,23.86-8.86c-5.67,4.31-11.72,8.39-18.07,12.28Q1251.27,722.74,1248.41,721Zm22.5-90.34c-5.13,18.51-39.24,37.94-53,45.13a92.17,92.17,0,0,1-17.62-4.7q-4.6-4-8.79-8.2C1219.86,657.55,1246.47,647.24,1270.91,630.68Zm-37.2.7q-3.21-1.61-6.34-3.26,6.58-1.3,12.92-2.91C1238.29,627.28,1236.08,629.34,1233.71,631.39Zm-40-33.57c13.92,5.28,29.46,9.11,46,8.95q-6.62,4.45-13.7,8.62c-12.75-.58-24.77-3.31-34.62-8.83q-4.87-3.37-9.46-6.87c-.65-.6-1.29-1.21-1.91-1.85A61.51,61.51,0,0,0,1193.72,597.82Zm-14,0,.18.36-.54-.4Zm17.89,32.47c-1.81.84-3.63,1.67-5.48,2.49q5.85-.41,11.53-1a161.09,161.09,0,0,0,25.64,3.34,238.83,238.83,0,0,1-20.21,14.23c-18.19-6.95-34.88-18.32-42.77-32.89A105.43,105.43,0,0,0,1197.62,630.26ZM1208,650c-5.82,3.69-12,7.37-18.31,11A135.59,135.59,0,0,1,1170,634.83C1181.69,644.66,1195.26,648.61,1208,650Zm-30.87,158.38c2.88,1.79,5.75,3.51,8.61,5.19l-.54.25.8-.09a262.78,262.78,0,0,0,27.33,14q-6.52,2.19-13.27,4A99.92,99.92,0,0,1,1177.16,808.35Zm40.21,73.75c-7.62-5.55-12.93-11.82-14.68-18.53a178.5,178.5,0,0,0,35.35,7.06A128.58,128.58,0,0,1,1217.36,882.1Zm36.79-26.77a167.06,167.06,0,0,1-17.2-4.77q11.16-2.32,22.21-5.68A32.77,32.77,0,0,1,1254.15,855.34Zm-4.24-44.28a131.41,131.41,0,0,1-17.75-8.52q6.31-2.35,12.66-5.12a132.25,132.25,0,0,0,22.74,1q-7.63-2.11-14.92-4.57A393.92,393.92,0,0,0,1293,771.64C1282,787.57,1267.2,800.71,1249.91,811.06Z"/></g><g id="OBJECT"><ellipse class="cls-6" cx="1100.12" cy="898.08" rx="299.88" ry="44.16"/><path class="cls-8" d="M799.76,759.75l1.12-2.41L819,765.74a11.3,11.3,0,0,0,14.41-4.18l2.25,1.42a14,14,0,0,1-17.79,5.17Z"/><path class="cls-9" d="M749.2,734.21l.13-.06,65.54,31.35,0,.1s-11.06,22.87-38.83,9.59C757.88,766.52,749.2,734.21,749.2,734.21Z"/><path class="cls-10" d="M749.2,734.21l.13-.06,65.54,31.35,0,.1s-11.06,22.87-38.83,9.59C757.88,766.52,749.2,734.21,749.2,734.21Z"/><path class="cls-11" d="M749.33,734.15l-.13.06s30.6-13.53,48.72-4.86c27.77,13.28,16.9,36.25,16.9,36.25l0-.1Z"/><path class="cls-12" d="M749.33,734.15l-.13.06s30.6-13.53,48.72-4.86c27.77,13.28,16.9,36.25,16.9,36.25l0-.1Z"/><path class="cls-8" d="M628.23,806.47l-1.08-.55,4.16-8.12a5.15,5.15,0,0,0-1.65-6.64l.69-1a6.36,6.36,0,0,1,2,8.2Z"/><path class="cls-9" d="M615.68,829l0-.06,15.47-29.3,0,0s10.22,5.45,3.67,17.87C630.56,825.68,615.68,829,615.68,829Z"/><path class="cls-13" d="M615.68,829l0-.06,15.47-29.3,0,0s10.22,5.45,3.67,17.87C630.56,825.68,615.68,829,615.68,829Z"/><path class="cls-11" d="M615.65,829l0,.06s-5.61-14.19-1.34-22.29c6.55-12.42,16.82-7,16.82-7l0,0Z"/><path class="cls-14" d="M615.65,829l0,.06s-5.61-14.19-1.34-22.29c6.55-12.42,16.82-7,16.82-7l0,0Z"/><path class="cls-8" d="M488.47,712.29l-.38-1.15,8.66-2.85a5.15,5.15,0,0,0,3.5-5.88l1.19-.23a6.36,6.36,0,0,1-4.31,7.27Z"/><path class="cls-9" d="M463.68,719.53l0-.06,31.6-10,0,0s3.44,11.06-9.95,15.29C476.64,727.59,463.68,719.53,463.68,719.53Z"/><path class="cls-15" d="M463.68,719.53l0-.06,31.6-10,0,0s3.44,11.06-9.95,15.29C476.64,727.59,463.68,719.53,463.68,719.53Z"/><path class="cls-11" d="M463.71,719.47l0,.06s6-14,14.71-16.8c13.39-4.23,16.92,6.81,16.92,6.81l0,0Z"/><path class="cls-16" d="M463.71,719.47l0,.06s6-14,14.71-16.8c13.39-4.23,16.92,6.81,16.92,6.81l0,0Z"/><path class="cls-8" d="M110.22,780.8l-.38-1.15,8.66-2.85a5.15,5.15,0,0,0,3.5-5.88l1.19-.23a6.36,6.36,0,0,1-4.31,7.27Z"/><path class="cls-9" d="M85.43,788l0-.06L117,778l0,0s3.44,11.06-9.95,15.29C98.38,796.1,85.43,788,85.43,788Z"/><path class="cls-17" d="M85.43,788l0-.06L117,778l0,0s3.44,11.06-9.95,15.29C98.38,796.1,85.43,788,85.43,788Z"/><path class="cls-11" d="M85.45,788l0,.06s6-14,14.71-16.8c13.39-4.23,16.92,6.81,16.92,6.81l0,0Z"/><path class="cls-18" d="M85.45,788l0,.06s6-14,14.71-16.8c13.39-4.23,16.92,6.81,16.92,6.81l0,0Z"/><path class="cls-8" d="M223.83,626.12l.43-1.13,8.52,3.24a5.15,5.15,0,0,0,6.42-2.37l1.07.57a6.36,6.36,0,0,1-7.93,2.93Z"/><path class="cls-9" d="M200,616.13l.06,0,30.82,12.15,0,0s-4.29,10.76-17.36,5.61C205,630.55,200,616.13,200,616.13Z"/><path class="cls-19" d="M200,616.13l.06,0,30.82,12.15,0,0s-4.29,10.76-17.36,5.61C205,630.55,200,616.13,200,616.13Z"/><path class="cls-11" d="M200.07,616.1l-.06,0s13.48-7.14,22-3.78c13.06,5.15,8.86,15.95,8.86,15.95l0,0Z"/><path class="cls-20" d="M200.07,616.1l-.06,0s13.48-7.14,22-3.78c13.06,5.15,8.86,15.95,8.86,15.95l0,0Z"/><path class="cls-21" d="M945.6,865.23a26.55,26.55,0,0,1,23.78-29.06l29.45-2.94a2.9,2.9,0,0,0,1.55-5.13h0a2.9,2.9,0,0,0-2.12-.64l-48.5,4.84a26.55,26.55,0,0,1-29.06-23.78h0A26.56,26.56,0,0,1,935.49,782a3.83,3.83,0,0,0,.75-6.41l-8.89-7.27A26.55,26.55,0,0,1,923.62,731h0l.17-.2L1106.51,880.3l-.16.21h0a26.55,26.55,0,0,1-37.37,3.73l-.27-.22a14.93,14.93,0,0,0-10.94-3.3L974.67,889a26.55,26.55,0,0,1-29.06-23.78Z"/><path class="cls-22" d="M945.6,865.23a26.55,26.55,0,0,1,23.78-29.06l29.45-2.94a2.9,2.9,0,0,0,1.55-5.13h0a2.9,2.9,0,0,0-2.12-.64l-48.5,4.84a26.55,26.55,0,0,1-29.06-23.78h0A26.56,26.56,0,0,1,935.49,782a3.83,3.83,0,0,0,.75-6.41l-8.89-7.27A26.55,26.55,0,0,1,923.62,731h0l.17-.2L1106.51,880.3l-.16.21h0a26.55,26.55,0,0,1-37.37,3.73l-.27-.22a14.93,14.93,0,0,0-10.94-3.3L974.67,889a26.55,26.55,0,0,1-29.06-23.78Z"/><path class="cls-23" d="M1001.35,829.55a2.8,2.8,0,0,0-.35-.78A2.8,2.8,0,0,1,1001.35,829.55Z"/><path class="cls-23" d="M1000.39,828.1h0a3.07,3.07,0,0,1,.34.32A3.07,3.07,0,0,0,1000.39,828.1Z"/><path class="cls-23" d="M999.39,827.57a2.9,2.9,0,0,0-1.13-.11A2.9,2.9,0,0,1,999.39,827.57Z"/><path class="cls-23" d="M969.39,836.17l29.45-2.94a3,3,0,0,0,.89-.23,3,3,0,0,1-.89.23Z"/><path class="cls-23" d="M1071.17,885.85a26.4,26.4,0,0,0,5.9,2.92A26.4,26.4,0,0,1,1071.17,885.85Z"/><path class="cls-23" d="M1069,884.24h0a26.86,26.86,0,0,0,2.19,1.61A26.86,26.86,0,0,1,1069,884.24Z"/><path class="cls-23" d="M923.79,730.77a26.55,26.55,0,0,1,37.2-3.54l9,7.38a3.83,3.83,0,0,0,6.14-2.06,26.56,26.56,0,0,1,23.14-20.06h0a26.55,26.55,0,0,1,29.06,23.78l4.89,49a2.9,2.9,0,0,0,1,2h0a2.9,2.9,0,0,0,4.72-2.53l-3-29.94a26.55,26.55,0,0,1,23.78-29.06h0a26.55,26.55,0,0,1,29.06,23.78l8.35,83.6a14.93,14.93,0,0,0,5.4,10.07h0a26.55,26.55,0,0,1,3.73,37.37l.16-.21Z"/><path class="cls-24" d="M1001.35,829.55a2.8,2.8,0,0,0-.35-.78A2.8,2.8,0,0,1,1001.35,829.55Z"/><path class="cls-25" d="M1000.39,828.1h0a3.07,3.07,0,0,1,.34.32A3.07,3.07,0,0,0,1000.39,828.1Z"/><path class="cls-26" d="M999.39,827.57a2.9,2.9,0,0,0-1.13-.11A2.9,2.9,0,0,1,999.39,827.57Z"/><path class="cls-27" d="M969.39,836.17l29.45-2.94a3,3,0,0,0,.89-.23,3,3,0,0,1-.89.23Z"/><path class="cls-28" d="M1071.17,885.85a26.4,26.4,0,0,0,5.9,2.92A26.4,26.4,0,0,1,1071.17,885.85Z"/><path class="cls-29" d="M1069,884.24h0a26.86,26.86,0,0,0,2.19,1.61A26.86,26.86,0,0,1,1069,884.24Z"/><path class="cls-30" d="M923.79,730.77a26.55,26.55,0,0,1,37.2-3.54l9,7.38a3.83,3.83,0,0,0,6.14-2.06,26.56,26.56,0,0,1,23.14-20.06h0a26.55,26.55,0,0,1,29.06,23.78l4.89,49a2.9,2.9,0,0,0,1,2h0a2.9,2.9,0,0,0,4.72-2.53l-3-29.94a26.55,26.55,0,0,1,23.78-29.06h0a26.55,26.55,0,0,1,29.06,23.78l8.35,83.6a14.93,14.93,0,0,0,5.4,10.07h0a26.55,26.55,0,0,1,3.73,37.37l.16-.21Z"/><path class="cls-31" d="M967.38,861.56a3.38,3.38,0,0,1,3-3.7l92.08-9.2-53.95-44.15-61.25,6.12a3.38,3.38,0,1,1-.67-6.74l54.51-5.45-51.3-42a3.38,3.38,0,1,1,4.29-5.24l51.3,42L1000,738.69a3.38,3.38,0,1,1,6.74-.67l6.12,61.25,53.95,44.15-9.2-92.08a3.38,3.38,0,1,1,6.74-.67l9.87,98.82,16,13.11a3.38,3.38,0,1,1-4.29,5.24l-16-13.11-98.82,9.87A3.38,3.38,0,0,1,967.38,861.56Z"/><path class="cls-32" d="M954.13,751.22l51.3,42L1000,738.69a3.38,3.38,0,1,1,6.74-.67l6.12,61.25,53.95,44.15-9.2-92.08a3.38,3.38,0,1,1,6.74-.67l9.87,98.82,16,13.11a3.38,3.38,0,0,1,.48,4.76L949.37,751.7A3.38,3.38,0,0,1,954.13,751.22Z"/><path class="cls-21" d="M1311.08,865.23a26.55,26.55,0,0,0-23.78-29.06l-29.45-2.94a2.9,2.9,0,0,1-1.55-5.13h0a2.9,2.9,0,0,1,2.12-.64l48.5,4.84A26.55,26.55,0,0,0,1336,808.52h0A26.56,26.56,0,0,0,1321.2,782a3.83,3.83,0,0,1-.75-6.41l8.89-7.27a26.55,26.55,0,0,0,3.73-37.37h0l-.17-.2L1150.17,880.3l.16.21h0a26.55,26.55,0,0,0,37.37,3.73l.27-.22a14.93,14.93,0,0,1,10.94-3.3L1282,889a26.55,26.55,0,0,0,29.06-23.78Z"/><path class="cls-33" d="M1311.08,865.23a26.55,26.55,0,0,0-23.78-29.06l-29.45-2.94a2.9,2.9,0,0,1-1.55-5.13h0a2.9,2.9,0,0,1,2.12-.64l48.5,4.84A26.55,26.55,0,0,0,1336,808.52h0A26.56,26.56,0,0,0,1321.2,782a3.83,3.83,0,0,1-.75-6.41l8.89-7.27a26.55,26.55,0,0,0,3.73-37.37h0l-.17-.2L1150.17,880.3l.16.21h0a26.55,26.55,0,0,0,37.37,3.73l.27-.22a14.93,14.93,0,0,1,10.94-3.3L1282,889a26.55,26.55,0,0,0,29.06-23.78Z"/><path class="cls-23" d="M1255.33,829.55a2.8,2.8,0,0,1,.35-.78A2.8,2.8,0,0,0,1255.33,829.55Z"/><path class="cls-23" d="M1256.3,828.1h0a3.07,3.07,0,0,0-.34.32A3.07,3.07,0,0,1,1256.3,828.1Z"/><path class="cls-23" d="M1257.29,827.57a2.9,2.9,0,0,1,1.13-.11A2.9,2.9,0,0,0,1257.29,827.57Z"/><path class="cls-23" d="M1287.29,836.17l-29.45-2.94a3,3,0,0,1-.89-.23,3,3,0,0,0,.89.23Z"/><path class="cls-23" d="M1185.51,885.85a26.4,26.4,0,0,1-5.9,2.92A26.4,26.4,0,0,0,1185.51,885.85Z"/><path class="cls-23" d="M1187.7,884.24h0a26.86,26.86,0,0,1-2.19,1.61A26.86,26.86,0,0,0,1187.7,884.24Z"/><path class="cls-23" d="M1332.89,730.77a26.55,26.55,0,0,0-37.2-3.54l-9,7.38a3.83,3.83,0,0,1-6.14-2.06,26.56,26.56,0,0,0-23.14-20.06h0a26.55,26.55,0,0,0-29.06,23.78l-4.89,49a2.9,2.9,0,0,1-1,2h0a2.9,2.9,0,0,1-4.72-2.53l3-29.94a26.55,26.55,0,0,0-23.78-29.06h0a26.55,26.55,0,0,0-29.06,23.78l-8.35,83.6a14.93,14.93,0,0,1-5.4,10.07h0a26.55,26.55,0,0,0-3.73,37.37l-.16-.21Z"/><path class="cls-34" d="M1255.33,829.55a2.8,2.8,0,0,1,.35-.78A2.8,2.8,0,0,0,1255.33,829.55Z"/><path class="cls-35" d="M1256.3,828.1h0a3.07,3.07,0,0,0-.34.32A3.07,3.07,0,0,1,1256.3,828.1Z"/><path class="cls-36" d="M1257.29,827.57a2.9,2.9,0,0,1,1.13-.11A2.9,2.9,0,0,0,1257.29,827.57Z"/><path class="cls-37" d="M1287.29,836.17l-29.45-2.94a3,3,0,0,1-.89-.23,3,3,0,0,0,.89.23Z"/><path class="cls-38" d="M1185.51,885.85a26.4,26.4,0,0,1-5.9,2.92A26.4,26.4,0,0,0,1185.51,885.85Z"/><path class="cls-39" d="M1187.7,884.24h0a26.86,26.86,0,0,1-2.19,1.61A26.86,26.86,0,0,0,1187.7,884.24Z"/><path class="cls-40" d="M1332.89,730.77a26.55,26.55,0,0,0-37.2-3.54l-9,7.38a3.83,3.83,0,0,1-6.14-2.06,26.56,26.56,0,0,0-23.14-20.06h0a26.55,26.55,0,0,0-29.06,23.78l-4.89,49a2.9,2.9,0,0,1-1,2h0a2.9,2.9,0,0,1-4.72-2.53l3-29.94a26.55,26.55,0,0,0-23.78-29.06h0a26.55,26.55,0,0,0-29.06,23.78l-8.35,83.6a14.93,14.93,0,0,1-5.4,10.07h0a26.55,26.55,0,0,0-3.73,37.37l-.16-.21Z"/><path class="cls-31" d="M1289.3,861.56a3.38,3.38,0,0,0-3-3.7l-92.08-9.2,53.95-44.15,61.25,6.12a3.38,3.38,0,1,0,.67-6.74l-54.51-5.45,51.3-42a3.38,3.38,0,0,0-4.29-5.24l-51.3,42,5.45-54.51A3.38,3.38,0,1,0,1250,738l-6.12,61.25-53.95,44.15,9.2-92.08a3.38,3.38,0,0,0-6.74-.67l-9.87,98.82-16,13.11a3.38,3.38,0,1,0,4.29,5.24l16-13.11,98.82,9.87A3.38,3.38,0,0,0,1289.3,861.56Z"/><path class="cls-32" d="M1302.55,751.22l-51.3,42,5.45-54.51A3.38,3.38,0,1,0,1250,738l-6.12,61.25-53.95,44.15,9.2-92.08a3.38,3.38,0,0,0-6.74-.67l-9.87,98.82-16,13.11a3.38,3.38,0,0,0-.48,4.76L1307.31,751.7A3.38,3.38,0,0,0,1302.55,751.22Z"/><path class="cls-41" d="M1027.12,829.35l4.92,41.49a22,22,0,0,0,10.48,16.24h-40.6a28.61,28.61,0,0,1-18.68-8.39L971.8,867.26l-2.26,2.26L981,881a32.06,32.06,0,0,0,8.56,6.13H931.26v3.2h70.56c.6,0,1.2.05,1.81.05h5.56v-.05h97.49v-3.2H1053.9v0a18.81,18.81,0,0,1-18.68-16.59L1030.3,829Z"/><path class="cls-42" d="M889.75,787.71l.23,0,83.09,83.09-.12.12s-29.18,28.94-64.38-6.27C885.58,841.67,889.75,787.71,889.75,787.71Z"/><path class="cls-43" d="M889.75,787.71l.23,0,83.09,83.09-.12.12s-29.18,28.94-64.38-6.27C885.58,841.67,889.75,787.71,889.75,787.71Z"/><path class="cls-44" d="M890,787.7l-.23,0s54-4.16,76.92,18.81c35.21,35.21,6.27,64.38,6.27,64.38l.12-.12Z"/><path class="cls-45" d="M890,787.7l-.23,0s54-4.16,76.92,18.81c35.21,35.21,6.27,64.38,6.27,64.38l.12-.12Z"/><path class="cls-42" d="M1018,738.24l.19.13,13.51,116.72-.17,0s-40.84,4.56-46.57-44.9C981.24,777.93,1018,738.24,1018,738.24Z"/><path class="cls-46" d="M1018,738.24l.19.13,13.51,116.72-.17,0s-40.84,4.56-46.57-44.9C981.24,777.93,1018,738.24,1018,738.24Z"/><path class="cls-44" d="M1018.2,738.36l-.19-.13s44.87,30.24,48.61,62.52c5.73,49.46-35.07,54.36-35.07,54.36l.17,0Z"/><path class="cls-47" d="M1018.2,738.36l-.19-.13s44.87,30.24,48.61,62.52c5.73,49.46-35.07,54.36-35.07,54.36l.17,0Z"/><path class="cls-42" d="M821.32,888.69l.15-.17H939c0,.11,0,.17,0,.17s-.17,41.09-50,41.09C856.53,929.78,821.32,888.69,821.32,888.69Z"/><path class="cls-48" d="M821.32,888.69l.15-.17H939c0,.11,0,.17,0,.17s-.17,41.09-50,41.09C856.53,929.78,821.32,888.69,821.32,888.69Z"/><path class="cls-44" d="M821.47,888.52l-.15.17S856.53,847.6,889,847.6c49.79,0,50,41.09,50,41.09s0-.06,0-.17Z"/><path class="cls-49" d="M821.47,888.52l-.15.17S856.53,847.6,889,847.6c49.79,0,50,41.09,50,41.09s0-.06,0-.17Z"/><path class="cls-8" d="M1142.46,638.6l1.7-2,15.39,12.77a11.3,11.3,0,0,0,15-.36l1.81,1.94a14,14,0,0,1-18.52.45Z"/><path class="cls-9" d="M1100.12,601l.14,0L1155.6,648l-.07.08s-16.54,19.29-40-.65C1100.24,634.45,1100.12,601,1100.12,601Z"/><path class="cls-50" d="M1100.12,601l.14,0L1155.6,648l-.07.08s-16.54,19.29-40-.65C1100.24,634.45,1100.12,601,1100.12,601Z"/><path class="cls-11" d="M1100.25,601l-.14,0s33-5.26,48.34,7.75c23.45,19.94,7.08,39.37,7.08,39.37l.07-.08Z"/><path class="cls-51" d="M1100.25,601l-.14,0s33-5.26,48.34,7.75c23.45,19.94,7.08,39.37,7.08,39.37l.07-.08Z"/><path class="cls-52" d="M1087.82,780.84c-.18-55.79,26-102.44,61-113.39l-1.95-.46c-44.82,10-78.66,57.27-78.48,113.91.18,56.49,34.13,103.39,78.84,113.32l2-.48C1114.32,882.85,1088,836.48,1087.82,780.84Z"/><path class="cls-53" d="M1087.82,780.84c-.18-55.79,26-102.44,61-113.39l-1.95-.46c-44.82,10-78.66,57.27-78.48,113.91.18,56.49,34.13,103.39,78.84,113.32l2-.48C1114.32,882.85,1088,836.48,1087.82,780.84Z"/><path class="cls-54" d="M1183.74,667.29l-2.2.56c34.27,11.6,60,57.52,60.15,112.5s-25.09,100.82-59.16,112.79q1.13.29,2.26.56c43.77-11,76.54-57.66,76.36-113.41S1227.75,677.89,1183.74,667.29Z"/><path class="cls-55" d="M1183.74,667.29l-2.2.56c34.27,11.6,60,57.52,60.15,112.5s-25.09,100.82-59.16,112.79q1.13.29,2.26.56c43.77-11,76.54-57.66,76.36-113.41S1227.75,677.89,1183.74,667.29Z"/><path id="_Path_2" data-name="&lt;Path&gt;" class="cls-56" d="M1164.39,665a52.14,52.14,0,0,1,9.27.81,29.47,29.47,0,0,1,20.13-20.26c5.14-1.62,10.44-5.24,11.17-10.35s-7-10.24-16.35-7.55a48.09,48.09,0,0,0-34,38.32A52.17,52.17,0,0,1,1164.39,665Z"/><path id="_Path_3" data-name="&lt;Path&gt;" class="cls-57" d="M1164.39,665h.6a29.44,29.44,0,0,1,20.85-23.53c5.14-1.62,10.44-5.24,11.17-10.35a5.33,5.33,0,0,0-1.19-4.08,17.7,17.7,0,0,0-7.2.6,48.08,48.08,0,0,0-34,38.32A52.17,52.17,0,0,1,1164.39,665Z"/><ellipse id="_Path_4" data-name="&lt;Path&gt;" class="cls-58" cx="1164.76" cy="780.88" rx="32.29" ry="117.2" transform="translate(-2.48 3.71) rotate(-0.18)"/><ellipse id="_Path_5" data-name="&lt;Path&gt;" class="cls-59" cx="1164.76" cy="780.88" rx="32.29" ry="117.2" transform="translate(-2.48 3.71) rotate(-0.18)"/><path class="cls-11" d="M1132.47,781c-.19-58.09,11.3-106.33,26.55-115.66-40,4.27-71.4,54.4-71.21,115.52.19,60.6,31.4,110.2,70.91,115C1143.93,885.07,1132.65,837.76,1132.47,781Z"/><path class="cls-60" d="M1132.47,781c-.19-58.09,11.3-106.33,26.55-115.66-40,4.27-71.4,54.4-71.21,115.52.19,60.6,31.4,110.2,70.91,115C1143.93,885.07,1132.65,837.76,1132.47,781Z"/><path class="cls-9" d="M1169.76,665.29c15.31,9.23,27.1,57.4,27.29,115.49.18,56.78-10.79,104.16-25.53,115,39.49-5,70.37-54.8,70.18-115.4C1241.5,719.23,1209.76,669.3,1169.76,665.29Z"/><path class="cls-61" d="M1169.76,665.29c15.31,9.23,27.1,57.4,27.29,115.49.18,56.78-10.79,104.16-25.53,115,39.49-5,70.37-54.8,70.18-115.4C1241.5,719.23,1209.76,669.3,1169.76,665.29Z"/><path class="cls-62" d="M1149.22,893.75h0l-.24.06Z"/><path class="cls-62" d="M1148.78,667.46h0l-.5-.11Z"/><path class="cls-9" d="M1068.35,780.91c-.18-56.63,33.64-103.84,78.45-113.9-2.89-.64-5.84-1.17-8.86-1.55-27.65-3-55.92,7.4-77.39,28.36C1039.1,714.62,1024.46,746,1024.7,781c0,35,14.83,66.25,36.4,86.91,21.6,20.82,49.94,31.06,77.57,27.87,2.89-.38,5.72-.9,8.5-1.52C1102.47,884.28,1068.53,837.38,1068.35,780.91Z"/><path class="cls-63" d="M1068.35,780.91c-.18-56.63,33.64-103.84,78.45-113.9-2.89-.64-5.84-1.17-8.86-1.55-27.65-3-55.92,7.4-77.39,28.36C1039.1,714.62,1024.46,746,1024.7,781c0,35,14.83,66.25,36.4,86.91,21.6,20.82,49.94,31.06,77.57,27.87,2.89-.38,5.72-.9,8.5-1.52C1102.47,884.28,1068.53,837.38,1068.35,780.91Z"/><path class="cls-64" d="M1214.52,665.21a89.2,89.2,0,0,0-30.77,2.08c44,10.6,77.24,57.11,77.42,113s-32.59,102.37-76.36,113.41l-1.27-.31a89.31,89.31,0,0,0,31.72,2.12c55.5-7.36,89.42-58.85,89.57-115.43C1304.31,723.5,1270.06,672.22,1214.52,665.21Z"/><path class="cls-65" d="M1214.52,665.21a89.2,89.2,0,0,0-30.77,2.08c44,10.6,77.24,57.11,77.42,113s-32.59,102.37-76.36,113.41l-1.27-.31a89.31,89.31,0,0,0,31.72,2.12c55.5-7.36,89.42-58.85,89.57-115.43C1304.31,723.5,1270.06,672.22,1214.52,665.21Z"/><path class="cls-66" d="M992.66,808.66l67.37-.07.07,71.54A16.14,16.14,0,0,1,1044,896.28l-35.09,0a16.14,16.14,0,0,1-16.16-16.12Z"/><path class="cls-67" d="M1060.11,880.12V880h2.31a6,6,0,0,0,5.94-6l0-43.35a6,6,0,0,0-6-5.94h-2.31V814.61h2.31a16.14,16.14,0,0,1,16.16,16.12l0,43.35a16.14,16.14,0,0,1-16.12,16.16h-5.88A16.06,16.06,0,0,0,1060.11,880.12Z"/><path class="cls-68" d="M1062.36,824.8a5.91,5.91,0,0,1,2.26.45V814.77a16.26,16.26,0,0,0-2.26-.16H1060v10.19Z"/><path class="cls-69" d="M1064.68,879.59a5.91,5.91,0,0,1-2.26.45h-2.31v.08a16.06,16.06,0,0,1-3.56,10.12H1062a20.57,20.57,0,0,0,2.64-10.12Z"/><rect class="cls-70" x="1007.38" y="782.1" width="47.42" height="21.67" rx="10.83" ry="10.83"/><path class="cls-70" d="M1008.75,776.87h49.08A10.83,10.83,0,0,0,1068.66,766h0a10.83,10.83,0,0,0-10.83-10.83h-49.08A10.83,10.83,0,0,0,997.91,766h0A10.83,10.83,0,0,0,1008.75,776.87Z"/><path class="cls-70" d="M1013.22,752.89H1078a9.81,9.81,0,0,0,9.81-9.81h0a9.81,9.81,0,0,0-9.81-9.81h-64.79a9.81,9.81,0,0,0-9.81,9.81h0A9.81,9.81,0,0,0,1013.22,752.89Z"/><g class="cls-71"><path class="cls-72" d="M-11.19,183.07q14-24.36,26.06-49.22-26,1-52.16,0Q-25.16,158.69-11.19,183.07Z"/><path class="cls-73" d="M471.39-65.09A688.25,688.25,0,0,1-208.74,103.39l-.56,1.87a690.2,690.2,0,0,0,682.06-169Z"/><path class="cls-74" d="M4.43,134.17Q-3,148.94-11.19,163.55q-8.15-14.6-15.64-29.38l-5.23-.14q9.85,19.79,20.87,39.28Q-.17,153.83,9.65,134Z"/><path class="cls-75" d="M48.73,180.64q11.89-25.41,21.89-51.16-25.77,3.08-51.79,4.21Q32.88,157.47,48.73,180.64Z"/><path class="cls-75" d="M54.77,131.19q-17.92,1.72-35.94,2.51,9.74,16.48,20.34,32.67Q47.42,148.86,54.77,131.19Z"/><path class="cls-76" d="M108.07,173.38q9.77-26.28,17.64-52.75-25.4,5.14-51.17,8.37Q90.44,151.56,108.07,173.38Z"/><path class="cls-77" d="M123.69,121l-2.36.47a1.53,1.53,0,0,0,0,.58,1.32,1.32,0,1,0,2.58-.51A1.54,1.54,0,0,0,123.69,121Z"/><path class="cls-77" d="M118.95,125.93a1.38,1.38,0,0,0-1,1.65h0a1.33,1.33,0,1,0,2.6-.5h0A1.38,1.38,0,0,0,118.95,125.93Z"/><path class="cls-77" d="M110.29,127.53a1.38,1.38,0,0,0-1.05,1.63h0a1.33,1.33,0,1,0,2.61-.46h0A1.38,1.38,0,0,0,110.29,127.53Z"/><path class="cls-77" d="M112.74,123.13a1.5,1.5,0,0,0,0,.58,1.32,1.32,0,1,0,2.58-.48,1.52,1.52,0,0,0-.21-.54Z"/><path class="cls-77" d="M104.12,124.64a1.53,1.53,0,0,0,0,.58,1.32,1.32,0,1,0,2.59-.44,1.54,1.54,0,0,0-.21-.54Z"/><path class="cls-77" d="M101.62,129a1.38,1.38,0,0,0-1.07,1.62h0a1.33,1.33,0,1,0,2.61-.43h0A1.38,1.38,0,0,0,101.62,129Z"/><path class="cls-77" d="M113.62,146.23a1.39,1.39,0,0,0-1.09,1.64h0a1.36,1.36,0,1,0,2.68-.48h0A1.39,1.39,0,0,0,113.62,146.23Z"/><ellipse class="cls-77" cx="112.2" cy="138.28" rx="1.34" ry="1.42" transform="translate(-22.46 21.76) rotate(-10.07)"/><path class="cls-77" d="M119.68,136.91a1.44,1.44,0,0,0,.69,1l.54-1.69.3-.94a1.26,1.26,0,0,0-.48,0A1.39,1.39,0,0,0,119.68,136.91Z"/><ellipse class="cls-77" cx="117.46" cy="142.15" rx="1.35" ry="1.42" transform="matrix(0.98, -0.18, 0.18, 0.98, -23.81, 23.63)"/><ellipse class="cls-77" cx="108.6" cy="143.73" rx="1.35" ry="1.42" transform="translate(-22.69 20.38) rotate(-9.71)"/><ellipse class="cls-77" cx="115.74" cy="132.81" rx="1.33" ry="1.42" transform="translate(-22.15 23.17) rotate(-10.44)"/><ellipse class="cls-77" cx="107" cy="134.37" rx="1.33" ry="1.42" transform="translate(-21.13 19.97) rotate(-9.71)"/><path class="cls-77" d="M104.7,147.76a1.39,1.39,0,0,0-1.11,1.63h0a1.36,1.36,0,1,0,2.68-.44h0A1.39,1.39,0,0,0,104.7,147.76Z"/><ellipse class="cls-77" cx="103.39" cy="139.79" rx="1.34" ry="1.42" transform="translate(-21.33 18.65) rotate(-9.35)"/><path class="cls-77" d="M110.44,162.69a1.42,1.42,0,0,0,1.11,1.16l.93-2.62a1.35,1.35,0,0,0-.92-.18A1.41,1.41,0,0,0,110.44,162.69Z"/><ellipse class="cls-77" cx="110.2" cy="153.09" rx="1.37" ry="1.42" transform="translate(-24.24 20.78) rotate(-9.71)"/><path class="cls-77" d="M107.79,166.5a1.41,1.41,0,0,0-1.15,1.63h0a1.4,1.4,0,1,0,2.75-.45h0A1.41,1.41,0,0,0,107.79,166.5Z"/><ellipse class="cls-77" cx="106.48" cy="158.53" rx="1.38" ry="1.42" transform="matrix(0.99, -0.16, 0.16, 0.99, -24.34, 19.4)"/><path class="cls-77" d="M92.92,130.39a1.38,1.38,0,0,0-1.1,1.61h0a1.33,1.33,0,1,0,2.62-.4h0A1.38,1.38,0,0,0,92.92,130.39Z"/><path class="cls-77" d="M95.48,126.05a1.5,1.5,0,0,0,0,.58,1.32,1.32,0,1,0,2.6-.41,1.53,1.53,0,0,0-.2-.55Z"/><path class="cls-77" d="M86.82,127.35a1.53,1.53,0,0,0,0,.58,1.32,1.32,0,1,0,2.6-.38,1.51,1.51,0,0,0-.19-.55Z"/><path class="cls-77" d="M84.2,131.65a1.38,1.38,0,0,0-1.12,1.59h0a1.33,1.33,0,1,0,2.62-.36h0A1.38,1.38,0,0,0,84.2,131.65Z"/><path class="cls-77" d="M95.77,149.17a1.39,1.39,0,0,0-1.13,1.61h0a1.36,1.36,0,1,0,2.69-.41h0A1.39,1.39,0,0,0,95.77,149.17Z"/><ellipse class="cls-77" cx="94.56" cy="141.19" rx="1.34" ry="1.42" transform="matrix(0.99, -0.15, 0.15, 0.99, -20.1, 15.77)"/><ellipse class="cls-77" cx="99.72" cy="145.19" rx="1.35" ry="1.42" transform="translate(-21.45 17.36) rotate(-8.99)"/><ellipse class="cls-77" cx="90.82" cy="146.54" rx="1.35" ry="1.42" transform="translate(-20.1 14.56) rotate(-8.26)"/><ellipse class="cls-77" cx="98.24" cy="135.81" rx="1.33" ry="1.42" transform="translate(-20 17) rotate(-8.98)"/><ellipse class="cls-77" cx="89.45" cy="137.14" rx="1.33" ry="1.42" transform="matrix(0.99, -0.14, 0.14, 0.99, -18.76, 14.27)"/><path class="cls-77" d="M85.51,141.06a1.39,1.39,0,0,0-1.13,1.59h0l.83,1.12a1.27,1.27,0,0,0,.7.11,1.43,1.43,0,0,0-.39-2.82Z"/><path class="cls-77" d="M97.19,158.56a1.32,1.32,0,0,0-.62.27l1.73,2.22a1.43,1.43,0,0,0,.47-1.3A1.4,1.4,0,0,0,97.19,158.56Z"/><ellipse class="cls-77" cx="102.69" cy="163.96" rx="1.39" ry="1.42" transform="translate(-24.34 18.04) rotate(-8.98)"/><ellipse class="cls-77" cx="101.2" cy="154.57" rx="1.37" ry="1.42" transform="translate(-22.9 17.7) rotate(-8.99)"/><path class="cls-77" d="M78.14,128.54a1.52,1.52,0,0,0,0,.58,1.32,1.32,0,1,0,2.61-.35,1.51,1.51,0,0,0-.19-.55Z"/><path class="cls-77" d="M80.46,137l-.21.05,1.53,2.11a1.47,1.47,0,0,0,.18-.93A1.38,1.38,0,0,0,80.46,137Z"/><path class="cls-8" d="M166.56,161.38q7.6-27,13.31-54-24.9,7.17-50.29,12.46Q147.23,141,166.56,161.38Z"/><path class="cls-72" d="M223.88,144.69q5.41-27.51,8.94-54.9Q208.54,99,183.66,106.28,203,126,223.88,144.69Z"/><path class="cls-78" d="M54.77,131.19q-7.35,17.67-15.6,35.17,2.35,3.58,4.74,7.15Q54,152.07,62.7,130.38,58.74,130.8,54.77,131.19Z"/><path class="cls-78" d="M38.87,132.53q-4.32,9.74-8.93,19.43,2.26,3.61,4.57,7.21,6.43-13.58,12.31-27.27Q42.85,132.24,38.87,132.53Z"/><path class="cls-78" d="M22.94,133.5l-1.88,3.95q2.18,3.64,4.4,7.27,2.78-5.82,5.45-11.66Q26.93,133.3,22.94,133.5Z"/><path class="cls-79" d="M178.82,112.29q.53-2.45,1.05-4.91-24.9,7.17-50.29,12.46l3.22,3.85Q156,118.77,178.82,112.29Z"/><path class="cls-79" d="M136.05,127.52l3.28,3.82q18.76-4.11,37.28-9.24.57-2.45,1.12-4.91Q157.06,123,136.05,127.52Z"/><path class="cls-79" d="M142.64,135.15l3.33,3.79q14.23-3.22,28.31-7,.6-2.45,1.18-4.91Q159.15,131.47,142.64,135.15Z"/><path class="cls-79" d="M149.34,142.72l3.39,3.76q9.59-2.24,19.11-4.73.63-2.45,1.24-4.91Q161.26,140,149.34,142.72Z"/><path class="cls-79" d="M169.26,151.56q.66-2.45,1.3-4.91-7.19,1.86-14.42,3.57l3.44,3.73Q164.43,152.79,169.26,151.56Z"/><path class="cls-79" d="M163.06,157.67l3.5,3.7q.69-2.45,1.37-4.91Z"/><path class="cls-74" d="M223.07,93.39q-2.36,16.37-5.39,32.79-12.32-11.27-24.07-22.91l-5,1.52q15.56,15.65,32.14,30.65,4.19-22,7.17-43.83Z"/><path class="cls-74" d="M218.17,95.14l-4.91,1.71q-.86,5.41-1.8,10.83-4-3.76-8-7.55l-4.94,1.6q7.88,7.69,16,15.21Q216.52,106,218.17,95.14Z"/><path class="cls-75" d="M279.76,123.41q3.2-27.87,4.53-55.47-23.52,11.14-47.77,20.45Q257.37,106.47,279.76,123.41Z"/><path class="cls-75" d="M269.77,74.6q-16.46,7.33-33.26,13.78,14.45,12.53,29.64,24.52Q268.41,93.69,269.77,74.6Z"/><path class="cls-76" d="M333.88,97.59q1-28.06.11-55.71-22.64,13.07-46.13,24.35Q310.15,82.55,333.88,97.59Z"/><path class="cls-77" d="M332.19,42.91l-2.1,1.2a1.53,1.53,0,0,0,.18.55,1.33,1.33,0,1,0,2.3-1.31A1.53,1.53,0,0,0,332.19,42.91Z"/><path class="cls-77" d="M329.21,49.08a1.38,1.38,0,0,0-.46,1.89h0a1.34,1.34,0,1,0,2.32-1.31h0A1.38,1.38,0,0,0,329.21,49.08Z"/><path class="cls-77" d="M321.46,53.38a1.38,1.38,0,0,0-.49,1.89h0A1.34,1.34,0,1,0,323.31,54h0A1.38,1.38,0,0,0,321.46,53.38Z"/><path class="cls-77" d="M322.39,48.42a1.52,1.52,0,0,0,.18.55,1.33,1.33,0,1,0,2.32-1.28,1.51,1.51,0,0,0-.38-.44Z"/><path class="cls-77" d="M314.65,52.63a1.48,1.48,0,0,0,.17.56,1.33,1.33,0,1,0,2.33-1.25,1.53,1.53,0,0,0-.37-.45Z"/><path class="cls-77" d="M313.65,57.58a1.38,1.38,0,0,0-.51,1.88h0a1.33,1.33,0,1,0,2.35-1.25h0A1.38,1.38,0,0,0,313.65,57.58Z"/><path class="cls-77" d="M330.56,70.06A1.4,1.4,0,0,0,330,72h0a1.37,1.37,0,1,0,2.4-1.31h0A1.4,1.4,0,0,0,330.56,70.06Z"/><ellipse class="cls-77" cx="326.69" cy="62.97" rx="1.35" ry="1.42" transform="translate(9.77 164.22) rotate(-28.63)"/><path class="cls-77" d="M333.39,59.27a1.45,1.45,0,0,0,1,.71q0-.89,0-1.78,0-.49,0-1a1.28,1.28,0,0,0-.46.15A1.39,1.39,0,0,0,333.39,59.27Z"/><ellipse class="cls-77" cx="332.94" cy="64.95" rx="1.36" ry="1.42" transform="translate(10.24 169.52) rotate(-28.99)"/><ellipse class="cls-77" cx="324.98" cy="69.3" rx="1.36" ry="1.42" transform="translate(5.93 162.14) rotate(-28.26)"/><ellipse class="cls-77" cx="328.33" cy="56.65" rx="1.34" ry="1.42" transform="translate(13.7 166.26) rotate(-29)"/><ellipse class="cls-77" cx="320.48" cy="60.93" rx="1.34" ry="1.42" transform="translate(9.35 159.01) rotate(-28.26)"/><path class="cls-77" d="M322.54,74.37a1.4,1.4,0,0,0-.54,1.9h0A1.37,1.37,0,1,0,324.41,75h0A1.4,1.4,0,0,0,322.54,74.37Z"/><ellipse class="cls-77" cx="318.76" cy="67.23" rx="1.35" ry="1.42" transform="translate(5.59 156.96) rotate(-27.9)"/><path class="cls-77" d="M332.75,86.69a1.42,1.42,0,0,0,1.43.74q0-1.39.06-2.78a1.36,1.36,0,0,0-.93.13A1.41,1.41,0,0,0,332.75,86.69Z"/><ellipse class="cls-77" cx="329.48" cy="77.66" rx="1.38" ry="1.42" transform="translate(2.51 165.28) rotate(-28.26)"/><path class="cls-77" d="M331.43,91.16a1.42,1.42,0,0,0-.58,1.91h0a1.4,1.4,0,1,0,2.48-1.31h0A1.42,1.42,0,0,0,331.43,91.16Z"/><ellipse class="cls-77" cx="327.65" cy="84.02" rx="1.39" ry="1.42" transform="translate(-1.24 163.06) rotate(-27.9)"/><path class="cls-77" d="M305.8,61.67a1.38,1.38,0,0,0-.53,1.87h0a1.33,1.33,0,1,0,2.37-1.21h0A1.38,1.38,0,0,0,305.8,61.67Z"/><path class="cls-77" d="M306.86,56.74a1.51,1.51,0,0,0,.16.56,1.33,1.33,0,1,0,2.34-1.22,1.47,1.47,0,0,0-.36-.45Z"/><path class="cls-77" d="M299,60.74a1.52,1.52,0,0,0,.16.56,1.32,1.32,0,1,0,2.36-1.19,1.51,1.51,0,0,0-.36-.46Z"/><path class="cls-77" d="M297.9,65.66a1.38,1.38,0,0,0-.56,1.87h0a1.33,1.33,0,1,0,2.38-1.18h0A1.38,1.38,0,0,0,297.9,65.66Z"/><path class="cls-77" d="M314.47,78.57a1.4,1.4,0,0,0-.57,1.89h0a1.37,1.37,0,1,0,2.43-1.25h0A1.4,1.4,0,0,0,314.47,78.57Z"/><ellipse class="cls-77" cx="310.79" cy="71.39" rx="1.35" ry="1.42" transform="translate(1.69 149.76) rotate(-27.16)"/><ellipse class="cls-77" cx="316.97" cy="73.53" rx="1.36" ry="1.42" transform="translate(1.9 154.83) rotate(-27.53)"/><ellipse class="cls-77" cx="308.92" cy="77.67" rx="1.36" ry="1.42" transform="translate(-1.84 147.62) rotate(-26.8)"/><ellipse class="cls-77" cx="312.58" cy="65.11" rx="1.34" ry="1.42" transform="translate(5.3 151.87) rotate(-27.53)"/><ellipse class="cls-77" cx="304.64" cy="69.19" rx="1.34" ry="1.42" transform="translate(1.53 144.8) rotate(-26.8)"/><path class="cls-77" d="M302.13,74.16a1.39,1.39,0,0,0-.57,1.87h0l1.14.8a1.28,1.28,0,0,0,.7-.12,1.43,1.43,0,0,0-1.27-2.55Z"/><path class="cls-77" d="M318.81,87a1.34,1.34,0,0,0-.5.46L320.66,89a1.43,1.43,0,0,0,0-1.38A1.41,1.41,0,0,0,318.81,87Z"/><ellipse class="cls-77" cx="325.76" cy="90.38" rx="1.39" ry="1.42" transform="translate(-4.88 160.82) rotate(-27.53)"/><ellipse class="cls-77" cx="321.36" cy="81.96" rx="1.38" ry="1.42" transform="translate(-1.49 157.84) rotate(-27.53)"/><path class="cls-77" d="M291.14,64.64a1.51,1.51,0,0,0,.15.56A1.32,1.32,0,1,0,293.66,64a1.53,1.53,0,0,0-.35-.46Z"/><path class="cls-77" d="M296,71.88l-.18.11L298,73.51a1.46,1.46,0,0,0-.12-.94A1.39,1.39,0,0,0,296,71.88Z"/><path class="cls-8" d="M386,67.32q-1.25-28.09-4.3-55.63-21.64,15-44.23,28.19Q361,54.3,386,67.32Z"/><path class="cls-72" d="M435.73,32.66q-3.47-28-8.69-55.22Q406.54-5.72,385,9.39,409.72,21.79,435.73,32.66Z"/><path class="cls-78" d="M269.77,74.6q-1.36,19.09-3.61,38.31,3.36,2.65,6.76,5.28,2.73-23.53,4.12-46.87Q273.42,73,269.77,74.6Z"/><path class="cls-78" d="M255.12,80.92q-1,10.61-2.28,21.26,3.29,2.71,6.62,5.39,1.77-14.92,3-29.77Q258.8,79.38,255.12,80.92Z"/><path class="cls-78" d="M240.34,86.9q-.25,2.17-.52,4.34Q243,94,246.3,96.74q.78-6.4,1.45-12.78Q244.05,85.45,240.34,86.9Z"/><path class="cls-79" d="M382.21,16.7q-.26-2.51-.54-5-21.64,15-44.23,28.19l4.3,2.61Q362.36,30.33,382.21,16.7Z"/><path class="cls-79" d="M346.06,45.07l4.35,2.57q16.65-10,32.79-20.9-.23-2.52-.48-5Q364.71,34,346.06,45.07Z"/><path class="cls-79" d="M354.77,50.18l4.39,2.52q12.59-7.66,24.9-15.87-.2-2.53-.42-5Q369.41,41.35,354.77,50.18Z"/><path class="cls-79" d="M363.58,55.2,368,57.67q8.47-5.23,16.81-10.71-.17-2.54-.36-5.07Q374.12,48.73,363.58,55.2Z"/><path class="cls-79" d="M385.46,57.12q-.14-2.54-.3-5.09-6.3,4.11-12.68,8.08l4.48,2.42Q381.22,59.86,385.46,57.12Z"/><path class="cls-79" d="M381.45,64.94,386,67.32q-.11-2.55-.24-5.1Z"/><path class="cls-74" d="M418.78-15.89q2.89,16.37,5.14,33-15.4-6.64-30.36-13.84l-4.29,3.08q19.88,9.76,40.56,18.53-2.89-22.27-6.91-44.09Z"/><path class="cls-74" d="M414.61-12.6l-4.18,3.25q.88,5.44,1.68,10.9-5-2.24-10-4.55L397.82.15q10,4.71,20.19,9.18Q416.45-1.69,414.61-12.6Z"/><path class="cls-72" d="M1388.86,183.07q-14-24.36-26.06-49.22,26,1,52.16,0Q1402.82,158.69,1388.86,183.07Z"/><path class="cls-73" d="M906.27-65.09A688.25,688.25,0,0,0,1586.4,103.39l.56,1.87a690.2,690.2,0,0,1-682.06-169Z"/><path class="cls-74" d="M1373.23,134.17q7.48,14.77,15.62,29.38,8.15-14.6,15.64-29.38l5.23-.14q-9.85,19.79-20.87,39.28-11-19.48-20.84-39.28Z"/><path class="cls-74" d="M1378.45,134.27l5.22.06q2.55,4.86,5.18,9.7,2.63-4.84,5.18-9.7l5.23-.06q-5.06,9.8-10.41,19.52Q1383.5,144.06,1378.45,134.27Z"/><path class="cls-75" d="M1328.94,180.64Q1317,155.23,1307,129.48q25.77,3.08,51.79,4.21Q1344.78,157.47,1328.94,180.64Z"/><path class="cls-75" d="M1322.89,131.19q17.92,1.72,35.94,2.51-9.74,16.48-20.34,32.67Q1330.24,148.86,1322.89,131.19Z"/><path class="cls-76" d="M1269.59,173.38q-9.77-26.28-17.64-52.75,25.4,5.14,51.17,8.37Q1287.22,151.56,1269.59,173.38Z"/><path class="cls-77" d="M1254,121l2.36.47a1.53,1.53,0,0,1,0,.58,1.32,1.32,0,1,1-2.58-.51A1.54,1.54,0,0,1,1254,121Z"/><path class="cls-77" d="M1258.71,125.93a1.38,1.38,0,0,1,1,1.65h0a1.33,1.33,0,1,1-2.6-.5h0A1.38,1.38,0,0,1,1258.71,125.93Z"/><path class="cls-77" d="M1267.37,127.53a1.38,1.38,0,0,1,1.05,1.63h0a1.33,1.33,0,1,1-2.61-.46h0A1.38,1.38,0,0,1,1267.37,127.53Z"/><path class="cls-77" d="M1264.93,123.13a1.5,1.5,0,0,1,0,.58,1.32,1.32,0,1,1-2.58-.48,1.52,1.52,0,0,1,.21-.54Z"/><path class="cls-77" d="M1273.55,124.64a1.53,1.53,0,0,1,0,.58,1.32,1.32,0,1,1-2.59-.44,1.54,1.54,0,0,1,.21-.54Z"/><path class="cls-77" d="M1276,129a1.38,1.38,0,0,1,1.07,1.62h0a1.33,1.33,0,1,1-2.61-.43h0A1.38,1.38,0,0,1,1276,129Z"/><path class="cls-77" d="M1264,146.23a1.39,1.39,0,0,1,1.09,1.64h0a1.36,1.36,0,1,1-2.68-.48h0A1.39,1.39,0,0,1,1264,146.23Z"/><ellipse class="cls-77" cx="1265.46" cy="138.28" rx="1.42" ry="1.34" transform="translate(907.97 1360.05) rotate(-79.93)"/><path class="cls-77" d="M1258,136.91a1.44,1.44,0,0,1-.69,1l-.54-1.69-.3-.94a1.26,1.26,0,0,1,.48,0A1.39,1.39,0,0,1,1258,136.91Z"/><ellipse class="cls-77" cx="1260.2" cy="142.15" rx="1.42" ry="1.35" transform="translate(892.12 1355.76) rotate(-79.56)"/><ellipse class="cls-77" cx="1269.06" cy="143.73" rx="1.42" ry="1.35" transform="translate(913.32 1370.36) rotate(-80.29)"/><ellipse class="cls-77" cx="1261.92" cy="132.81" rx="1.42" ry="1.33" transform="translate(902.65 1349.78) rotate(-79.56)"/><ellipse class="cls-77" cx="1270.66" cy="134.37" rx="1.42" ry="1.33" transform="translate(923.93 1364.17) rotate(-80.29)"/><path class="cls-77" d="M1273,147.76a1.39,1.39,0,0,1,1.11,1.63h0a1.36,1.36,0,1,1-2.68-.44h0A1.39,1.39,0,0,1,1273,147.76Z"/><ellipse class="cls-77" cx="1274.27" cy="139.79" rx="1.42" ry="1.34" transform="translate(929.37 1374.44) rotate(-80.65)"/><path class="cls-77" d="M1267.23,162.69a1.42,1.42,0,0,1-1.11,1.16l-.93-2.62a1.35,1.35,0,0,1,.92-.18A1.41,1.41,0,0,1,1267.23,162.69Z"/><ellipse class="cls-77" cx="1267.46" cy="153.09" rx="1.42" ry="1.37" transform="translate(902.76 1376.57) rotate(-80.29)"/><path class="cls-77" d="M1269.88,166.5a1.41,1.41,0,0,1,1.15,1.63h0a1.4,1.4,0,1,1-2.75-.45h0A1.41,1.41,0,0,1,1269.88,166.5Z"/><ellipse class="cls-77" cx="1271.19" cy="158.53" rx="1.42" ry="1.38" transform="matrix(0.16, -0.99, 0.99, 0.16, 908.27, 1387.09)"/><path class="cls-77" d="M1284.74,130.39a1.38,1.38,0,0,1,1.1,1.61h0a1.33,1.33,0,1,1-2.62-.4h0A1.38,1.38,0,0,1,1284.74,130.39Z"/><path class="cls-77" d="M1282.19,126.05a1.5,1.5,0,0,1,0,.58,1.32,1.32,0,1,1-2.6-.41,1.53,1.53,0,0,1,.2-.55Z"/><path class="cls-77" d="M1290.85,127.35a1.53,1.53,0,0,1,0,.58,1.32,1.32,0,1,1-2.6-.38,1.51,1.51,0,0,1,.19-.55Z"/><path class="cls-77" d="M1293.46,131.65a1.38,1.38,0,0,1,1.12,1.59h0a1.33,1.33,0,1,1-2.62-.36h0A1.38,1.38,0,0,1,1293.46,131.65Z"/><path class="cls-77" d="M1281.9,149.17a1.39,1.39,0,0,1,1.13,1.61h0a1.36,1.36,0,1,1-2.69-.41h0A1.39,1.39,0,0,1,1281.9,149.17Z"/><ellipse class="cls-77" cx="1283.11" cy="141.19" rx="1.42" ry="1.34" transform="translate(951.17 1388.63) rotate(-81.38)"/><ellipse class="cls-77" cx="1277.95" cy="145.19" rx="1.42" ry="1.35" transform="translate(934.95 1384.78) rotate(-81.01)"/><ellipse class="cls-77" cx="1286.85" cy="146.54" rx="1.42" ry="1.35" transform="translate(957.03 1399.01) rotate(-81.74)"/><ellipse class="cls-77" cx="1279.43" cy="135.81" rx="1.42" ry="1.33" transform="translate(945.51 1378.34) rotate(-81.02)"/><ellipse class="cls-77" cx="1288.21" cy="137.14" rx="1.42" ry="1.33" transform="translate(967.52 1392.32) rotate(-81.74)"/><path class="cls-77" d="M1292.16,141.06a1.39,1.39,0,0,1,1.13,1.59h0l-.83,1.12a1.27,1.27,0,0,1-.7.11,1.43,1.43,0,0,1,.39-2.82Z"/><path class="cls-77" d="M1280.47,158.56a1.32,1.32,0,0,1,.62.27l-1.73,2.22a1.43,1.43,0,0,1-.47-1.3A1.4,1.4,0,0,1,1280.47,158.56Z"/><ellipse class="cls-77" cx="1274.98" cy="163.96" rx="1.42" ry="1.39" transform="translate(913.96 1397.7) rotate(-81.02)"/><ellipse class="cls-77" cx="1276.46" cy="154.57" rx="1.42" ry="1.37" transform="translate(924.43 1391.23) rotate(-81.01)"/><path class="cls-77" d="M1299.53,128.54a1.52,1.52,0,0,1,0,.58,1.32,1.32,0,1,1-2.61-.35,1.51,1.51,0,0,1,.19-.55Z"/><path class="cls-77" d="M1297.2,137l.21.05-1.53,2.11a1.47,1.47,0,0,1-.18-.93A1.38,1.38,0,0,1,1297.2,137Z"/><path class="cls-8" d="M1211.11,161.38q-7.6-27-13.31-54,24.9,7.17,50.29,12.46Q1230.43,141,1211.11,161.38Z"/><path class="cls-72" d="M1153.78,144.69q-5.41-27.51-8.94-54.9Q1169.12,99,1194,106.28,1174.7,126,1153.78,144.69Z"/><path class="cls-78" d="M1322.89,131.19q7.35,17.67,15.6,35.17-2.35,3.58-4.74,7.15-10.07-21.44-18.79-43.14Q1318.93,130.8,1322.89,131.19Z"/><path class="cls-78" d="M1338.79,132.53q4.32,9.74,8.93,19.43-2.26,3.61-4.57,7.21-6.43-13.58-12.31-27.27Q1334.81,132.24,1338.79,132.53Z"/><path class="cls-78" d="M1354.73,133.5l1.88,3.95q-2.18,3.64-4.4,7.27-2.78-5.82-5.45-11.66Q1350.74,133.3,1354.73,133.5Z"/><path class="cls-79" d="M1198.85,112.29q-.53-2.45-1.05-4.91,24.9,7.17,50.29,12.46l-3.22,3.85Q1221.67,118.77,1198.85,112.29Z"/><path class="cls-79" d="M1241.61,127.52l-3.28,3.82q-18.76-4.11-37.28-9.24-.57-2.45-1.12-4.91Q1220.61,123,1241.61,127.52Z"/><path class="cls-79" d="M1235,135.15l-3.33,3.79q-14.23-3.22-28.31-7-.6-2.45-1.18-4.91Q1218.51,131.47,1235,135.15Z"/><path class="cls-79" d="M1228.33,142.72l-3.39,3.76q-9.59-2.24-19.11-4.73-.63-2.45-1.24-4.91Q1216.41,140,1228.33,142.72Z"/><path class="cls-79" d="M1208.4,151.56q-.66-2.45-1.3-4.91,7.19,1.86,14.42,3.57l-3.44,3.73Q1213.23,152.79,1208.4,151.56Z"/><path class="cls-79" d="M1214.61,157.67l-3.5,3.7q-.69-2.45-1.37-4.91Z"/><path class="cls-74" d="M1154.6,93.39q2.36,16.37,5.39,32.79,12.32-11.27,24.07-22.91l5,1.52q-15.56,15.65-32.14,30.65-4.19-22-7.17-43.83Z"/><path class="cls-74" d="M1159.49,95.14l4.91,1.71q.86,5.41,1.8,10.83,4-3.76,8-7.55l4.94,1.6q-7.88,7.69-16,15.21Q1161.14,106,1159.49,95.14Z"/><path class="cls-75" d="M1097.91,123.41q-3.2-27.87-4.53-55.47,23.52,11.14,47.77,20.45Q1120.29,106.47,1097.91,123.41Z"/><path class="cls-75" d="M1107.89,74.6q16.46,7.33,33.26,13.78-14.45,12.53-29.64,24.52Q1109.25,93.69,1107.89,74.6Z"/><path class="cls-76" d="M1043.78,97.59q-1-28.06-.11-55.71,22.64,13.07,46.13,24.35Q1067.51,82.55,1043.78,97.59Z"/><path class="cls-77" d="M1045.47,42.91l2.1,1.2a1.53,1.53,0,0,1-.18.55,1.33,1.33,0,1,1-2.3-1.31A1.53,1.53,0,0,1,1045.47,42.91Z"/><path class="cls-77" d="M1048.45,49.08a1.38,1.38,0,0,1,.46,1.89h0a1.34,1.34,0,1,1-2.32-1.31h0A1.38,1.38,0,0,1,1048.45,49.08Z"/><path class="cls-77" d="M1056.21,53.38a1.38,1.38,0,0,1,.49,1.89h0a1.34,1.34,0,1,1-2.34-1.28h0A1.38,1.38,0,0,1,1056.21,53.38Z"/><path class="cls-77" d="M1055.27,48.42a1.52,1.52,0,0,1-.18.55,1.33,1.33,0,1,1-2.32-1.28,1.51,1.51,0,0,1,.38-.44Z"/><path class="cls-77" d="M1063,52.63a1.48,1.48,0,0,1-.17.56,1.33,1.33,0,1,1-2.33-1.25,1.53,1.53,0,0,1,.37-.45Z"/><path class="cls-77" d="M1064,57.58a1.38,1.38,0,0,1,.51,1.88h0a1.33,1.33,0,1,1-2.35-1.25h0A1.38,1.38,0,0,1,1064,57.58Z"/><path class="cls-77" d="M1047.11,70.06a1.4,1.4,0,0,1,.52,1.91h0a1.37,1.37,0,1,1-2.4-1.31h0A1.4,1.4,0,0,1,1047.11,70.06Z"/><ellipse class="cls-77" cx="1050.98" cy="62.97" rx="1.42" ry="1.35" transform="translate(492.17 955.3) rotate(-61.37)"/><path class="cls-77" d="M1044.28,59.27a1.45,1.45,0,0,1-1,.71q0-.89,0-1.78,0-.49,0-1a1.28,1.28,0,0,1,.46.15A1.39,1.39,0,0,1,1044.28,59.27Z"/><ellipse class="cls-77" cx="1044.73" cy="64.95" rx="1.42" ry="1.36" transform="translate(481.51 947.26) rotate(-61.01)"/><ellipse class="cls-77" cx="1052.68" cy="69.3" rx="1.42" ry="1.36" transform="translate(493.2 963.68) rotate(-61.74)"/><ellipse class="cls-77" cx="1049.33" cy="56.65" rx="1.42" ry="1.34" transform="translate(491.12 946.99) rotate(-61)"/><ellipse class="cls-77" cx="1057.18" cy="60.93" rx="1.42" ry="1.34" transform="translate(502.93 963.24) rotate(-61.74)"/><path class="cls-77" d="M1055.13,74.37a1.4,1.4,0,0,1,.54,1.9h0a1.37,1.37,0,1,1-2.42-1.28h0A1.4,1.4,0,0,1,1055.13,74.37Z"/><ellipse class="cls-77" cx="1058.9" cy="67.23" rx="1.42" ry="1.35" transform="translate(504.03 971.61) rotate(-62.1)"/><path class="cls-77" d="M1044.92,86.69a1.42,1.42,0,0,1-1.43.74q0-1.39-.06-2.78a1.36,1.36,0,0,1,.93.13A1.41,1.41,0,0,1,1044.92,86.69Z"/><ellipse class="cls-77" cx="1048.19" cy="77.66" rx="1.42" ry="1.38" transform="translate(483.42 964.09) rotate(-61.74)"/><path class="cls-77" d="M1046.24,91.16a1.42,1.42,0,0,1,.58,1.91h0a1.4,1.4,0,1,1-2.48-1.31h0A1.42,1.42,0,0,1,1046.24,91.16Z"/><ellipse class="cls-77" cx="1050.01" cy="84.02" rx="1.42" ry="1.39" transform="translate(484.49 972.71) rotate(-62.1)"/><path class="cls-77" d="M1071.87,61.67a1.38,1.38,0,0,1,.53,1.87h0a1.33,1.33,0,1,1-2.37-1.21h0A1.38,1.38,0,0,1,1071.87,61.67Z"/><path class="cls-77" d="M1070.81,56.74a1.51,1.51,0,0,1-.16.56,1.33,1.33,0,1,1-2.34-1.22,1.47,1.47,0,0,1,.36-.45Z"/><path class="cls-77" d="M1078.64,60.74a1.52,1.52,0,0,1-.16.56,1.32,1.32,0,1,1-2.36-1.19,1.51,1.51,0,0,1,.36-.46Z"/><path class="cls-77" d="M1079.76,65.66a1.38,1.38,0,0,1,.56,1.87h0a1.33,1.33,0,1,1-2.38-1.18h0A1.38,1.38,0,0,1,1079.76,65.66Z"/><path class="cls-77" d="M1063.19,78.57a1.4,1.4,0,0,1,.57,1.89h0a1.37,1.37,0,1,1-2.43-1.25h0A1.4,1.4,0,0,1,1063.19,78.57Z"/><ellipse class="cls-77" cx="1066.88" cy="71.39" rx="1.42" ry="1.35" transform="translate(516.28 987.99) rotate(-62.84)"/><ellipse class="cls-77" cx="1060.69" cy="73.53" rx="1.42" ry="1.36" transform="translate(505.24 980.15) rotate(-62.47)"/><ellipse class="cls-77" cx="1068.74" cy="77.67" rx="1.42" ry="1.36" transform="translate(517.57 996.61) rotate(-63.2)"/><ellipse class="cls-77" cx="1065.08" cy="65.11" rx="1.42" ry="1.34" transform="translate(514.99 979.46) rotate(-62.47)"/><ellipse class="cls-77" cx="1073.03" cy="69.19" rx="1.42" ry="1.34" transform="translate(527.43 995.74) rotate(-63.2)"/><path class="cls-77" d="M1075.54,74.16a1.39,1.39,0,0,1,.57,1.87h0l-1.14.8a1.28,1.28,0,0,1-.7-.12,1.43,1.43,0,0,1,1.27-2.55Z"/><path class="cls-77" d="M1058.86,87a1.34,1.34,0,0,1,.5.46L1057,89a1.43,1.43,0,0,1,0-1.38A1.41,1.41,0,0,1,1058.86,87Z"/><ellipse class="cls-77" cx="1051.91" cy="90.38" rx="1.42" ry="1.39" transform="translate(485.5 981.37) rotate(-62.47)"/><ellipse class="cls-77" cx="1056.3" cy="81.96" rx="1.42" ry="1.38" transform="translate(495.34 980.74) rotate(-62.47)"/><path class="cls-77" d="M1086.53,64.64a1.51,1.51,0,0,1-.15.56A1.32,1.32,0,1,1,1084,64a1.53,1.53,0,0,1,.35-.46Z"/><path class="cls-77" d="M1081.64,71.88l.18.11-2.13,1.52a1.46,1.46,0,0,1,.12-.94A1.39,1.39,0,0,1,1081.64,71.88Z"/><path class="cls-8" d="M991.69,67.32q1.25-28.09,4.3-55.63,21.64,15,44.23,28.19Q1016.64,54.3,991.69,67.32Z"/><path class="cls-72" d="M941.94,32.66q3.47-28,8.69-55.22,20.5,16.85,42.08,32Q967.95,21.79,941.94,32.66Z"/><path class="cls-78" d="M1107.89,74.6q1.36,19.09,3.61,38.31-3.36,2.65-6.76,5.28-2.73-23.53-4.12-46.87Q1104.25,73,1107.89,74.6Z"/><path class="cls-78" d="M1122.54,80.92q1,10.61,2.28,21.26-3.29,2.71-6.62,5.39-1.77-14.92-3-29.77Q1118.86,79.38,1122.54,80.92Z"/><path class="cls-78" d="M1137.32,86.9q.25,2.17.52,4.34-3.22,2.76-6.48,5.5-.78-6.4-1.45-12.78Q1133.61,85.45,1137.32,86.9Z"/><path class="cls-79" d="M995.46,16.7q.26-2.51.54-5,21.64,15,44.23,28.19l-4.3,2.61Q1015.31,30.33,995.46,16.7Z"/><path class="cls-79" d="M1031.6,45.07l-4.35,2.57q-16.65-10-32.79-20.9.23-2.52.48-5Q1013,34,1031.6,45.07Z"/><path class="cls-79" d="M1022.89,50.18l-4.39,2.52Q1005.9,45,993.6,36.83q.2-2.53.42-5Q1008.26,41.35,1022.89,50.18Z"/><path class="cls-79" d="M1014.09,55.2l-4.43,2.47q-8.47-5.23-16.81-10.71.17-2.54.36-5.07Q1003.54,48.73,1014.09,55.2Z"/><path class="cls-79" d="M992.21,57.12q.14-2.54.3-5.09,6.3,4.11,12.68,8.08l-4.48,2.42Q996.45,59.86,992.21,57.12Z"/><path class="cls-79" d="M996.22,64.94l-4.52,2.38q.11-2.55.24-5.1Z"/><path class="cls-74" d="M958.89-15.89Q956,.48,953.75,17.1q15.4-6.64,30.36-13.84l4.29,3.08q-19.88,9.76-40.56,18.53,2.89-22.27,6.91-44.09Z"/><path class="cls-74" d="M963.05-12.6l4.18,3.25q-.88,5.44-1.68,10.9,5-2.24,10-4.55L979.84.15q-10,4.71-20.19,9.18Q961.21-1.69,963.05-12.6Z"/><g class="cls-80"><path class="cls-81" d="M1106.43,71.8q-31-13.94-60.66-31Q1064,56.27,1083,71.11c2.27-1.62,4.54-3.24,6.79-4.88-.87-.42-1.72-.85-2.58-1.27,2.2,1.07,4.4,2.14,6.61,3.19l-.45-.21q.28,5.82.65,11.66,5.28,4,10.61,8Q1105.6,79.68,1106.43,71.8Z"/><path class="cls-82" d="M992.48,52.56l0,.44,0,.74c-.07,1.13-.14,2.25-.2,3.38h0q-.14,2.55-.27,5.1l0,0q-.13,2.55-.24,5.1l4.52-2.38,0,0,4.5-2.4h0l3-1.62.62-.34.86-.47h0c1.49-.81,3-1.64,4.44-2.46l0,0,4.43-2.47h0l4.41-2.5h0l4.39-2.52,0,0c1.46-.84,2.93-1.68,4.39-2.53h0l.83-.49.63-.37,2.89-1.7h0l4.32-2.59,0,0,.67-.4c.1-.73.2-1.47.3-2.21l-2.26.84,4.28-1.63-1.47-.88,1.49.87,2.32-.89-3.05-1.8Q1015.5,45.06,992.48,52.56Z"/></g><path class="cls-83" d="M320.76,51.16q7.69-6.32,15.24-12.74a687.59,687.59,0,0,1-62.63,32.4c.56,5.3,1.14,10.6,1.78,15.92,2.83-2.1,5.63-4.22,8.43-6.34q.4-6.25.7-12.48l-.45.21c2.21-1,4.41-2.12,6.62-3.19-.86.42-1.72.86-2.58,1.27,2.43,1.78,4.88,3.53,7.34,5.28q11.38-8.82,22.5-17.84h0l2-1.61,1.09-.9Z"/><path class="cls-84" d="M338,37.22c2.38.92,4.76,1.84,7.14,2.74L343,39.13c.2,1.47.4,2.95.6,4.42l2.52,1.51h0L349,46.78l.62.37.83.49h0c1.45.85,2.93,1.69,4.39,2.53l0,0,4.39,2.52h0l4.41,2.5h0L368,57.67l0,0c1.48.82,3,1.65,4.44,2.46h0l.87.47.61.33,3,1.62h0l4.5,2.4,0,0L386,67.32q-.11-2.55-.24-5.1l0,0q-.13-2.55-.27-5.1h0c-.06-1.13-.13-2.25-.2-3.38l0-.73c0-.32,0-.65-.06-1h0c0-.31,0-.62-.06-.93q-22.13-7.3-44-15.68Z"/><path class="cls-75" d="M192.42,42.83Q226.8,21.72,259.07-1.35q-34.14-16.56-67.26-35.89Q190.8,2.48,192.42,42.83Z"/><path class="cls-75" d="M238.21-11.78q-23.45-12.07-46.39-25.46-.7,27.53-.14,55.37Q215.44,3.65,238.21-11.78Z"/><path class="cls-76" d="M271.15,80.75q32.35-24,62.46-49.67Q298.52,17.5,264.28,1.16,266.39,40.74,271.15,80.75Z"/><path class="cls-77" d="M330.82,30l-3.25-1.27a2.14,2.14,0,0,0-.45.7,1.91,1.91,0,1,0,3.55,1.39A2.17,2.17,0,0,0,330.82,30Z"/><path class="cls-77" d="M321.22,32.18a2,2,0,0,0-2.54,1.18h0a1.93,1.93,0,1,0,3.57,1.43h0A2,2,0,0,0,321.22,32.18Z"/><path class="cls-77" d="M309.37,27.36a2,2,0,0,0-2.56,1.14h0A1.93,1.93,0,1,0,310.37,30h0A2,2,0,0,0,309.37,27.36Z"/><path class="cls-77" d="M315.77,24a2.16,2.16,0,0,0-.46.69,1.91,1.91,0,1,0,3.54,1.44,2.13,2.13,0,0,0,.16-.82Z"/><path class="cls-77" d="M304,19.07a2.14,2.14,0,0,0-.47.69,1.92,1.92,0,1,0,3.52,1.49,2.16,2.16,0,0,0,.17-.81Z"/><path class="cls-77" d="M297.57,22.37A2,2,0,0,0,295,23.48h0A1.93,1.93,0,1,0,298.54,25h0A2,2,0,0,0,297.57,22.37Z"/><path class="cls-77" d="M299,52.43a2,2,0,0,0-2.61,1.12h0A2,2,0,1,0,300,55.07h0A2,2,0,0,0,299,52.43Z"/><ellipse class="cls-77" cx="303.39" cy="41.78" rx="2.04" ry="1.95" transform="translate(148.59 306.03) rotate(-67.48)"/><path class="cls-77" d="M313.62,46a2,2,0,0,0,.08,1.72l2-1.61,1.09-.9a1.84,1.84,0,0,0-.58-.38A2,2,0,0,0,313.62,46Z"/><ellipse class="cls-77" cx="306.85" cy="50.53" rx="2.04" ry="1.96" transform="translate(144.33 315.67) rotate(-67.85)"/><ellipse class="cls-77" cx="294.75" cy="45.52" rx="2.04" ry="1.97" transform="translate(138.16 299.35) rotate(-67.11)"/><ellipse class="cls-77" cx="311.97" cy="37.96" rx="2.04" ry="1.94" transform="translate(159.17 312.58) rotate(-67.85)"/><ellipse class="cls-77" cx="300.03" cy="33.01" rx="2.04" ry="1.94" transform="translate(152.91 296.57) rotate(-67.11)"/><path class="cls-77" d="M286.85,47.31a2,2,0,0,0-2.62,1.09h0A2,2,0,1,0,287.87,50h0A2,2,0,0,0,286.85,47.31Z"/><ellipse class="cls-77" cx="291.41" cy="36.71" rx="2.04" ry="1.95" transform="translate(142.59 289.93) rotate(-66.74)"/><path class="cls-77" d="M282.34,69.74A2,2,0,0,0,282.8,72L286,69.58a2,2,0,0,0-1-.93A2,2,0,0,0,282.34,69.74Z"/><ellipse class="cls-77" cx="289.47" cy="58.02" rx="2.04" ry="1.99" transform="translate(123.41 302.12) rotate(-67.11)"/><path class="cls-77" d="M276.13,72.25a2,2,0,0,0-2.67,1.07h0a2,2,0,1,0,3.73,1.61h0A2,2,0,0,0,276.13,72.25Z"/><ellipse class="cls-77" cx="280.69" cy="61.65" rx="2.04" ry="2.01" transform="translate(113.18 295.17) rotate(-66.74)"/><path class="cls-77" d="M285.82,17.23a2,2,0,0,0-2.59,1.07h0a1.93,1.93,0,1,0,3.53,1.57h0A2,2,0,0,0,285.82,17.23Z"/><path class="cls-77" d="M292.32,14a2.13,2.13,0,0,0-.48.68,1.92,1.92,0,1,0,3.51,1.54,2.14,2.14,0,0,0,.18-.81Z"/><path class="cls-77" d="M280.66,8.8a2.11,2.11,0,0,0-.49.68,1.92,1.92,0,1,0,3.49,1.58,2.12,2.12,0,0,0,.19-.81Z"/><path class="cls-77" d="M274.12,11.92a2,2,0,0,0-2.61,1h0A1.94,1.94,0,1,0,275,14.58h0A2,2,0,0,0,274.12,11.92Z"/><path class="cls-77" d="M274.78,42a2,2,0,0,0-2.64,1.05h0a2,2,0,1,0,3.62,1.61h0A2,2,0,0,0,274.78,42Z"/><ellipse class="cls-77" cx="279.47" cy="31.49" rx="2.04" ry="1.96" transform="translate(137.02 273.98) rotate(-66)"/><ellipse class="cls-77" cx="282.71" cy="40.34" rx="2.04" ry="1.97" transform="translate(132.43 283.17) rotate(-66.37)"/><ellipse class="cls-77" cx="270.72" cy="34.99" rx="2.04" ry="1.97" transform="translate(127.12 267.14) rotate(-65.62)"/><ellipse class="cls-77" cx="288.15" cy="27.9" rx="2.04" ry="1.94" transform="translate(147.08 280.7) rotate(-66.37)"/><ellipse class="cls-77" cx="276.32" cy="22.63" rx="2.04" ry="1.94" transform="translate(141.67 264.98) rotate(-65.63)"/><path class="cls-77" d="M268.44,24.25a2,2,0,0,0-2.63,1h0l.15,2a1.9,1.9,0,0,0,.78.68,2,2,0,0,0,1.7-3.7Z"/><path class="cls-77" d="M269.26,54.43a2,2,0,0,0-1-.16q.2,2,.4,4a2,2,0,0,0,.57-3.87Z"/><ellipse class="cls-77" cx="271.83" cy="65.21" rx="2.04" ry="2.02" transform="translate(103.12 288.1) rotate(-66.37)"/><ellipse class="cls-77" cx="277.27" cy="52.77" rx="2.04" ry="1.99" transform="translate(117.77 285.63) rotate(-66.37)"/><path class="cls-77" d="M269.06,3.42a2.13,2.13,0,0,0-.49.67A1.92,1.92,0,1,0,272,5.72a2.12,2.12,0,0,0,.2-.81Z"/><path class="cls-77" d="M265.41,15.36a1.82,1.82,0,0,0-.29-.1q.12,1.87.25,3.74a2.07,2.07,0,0,0,.94-1A2,2,0,0,0,265.41,15.36Z"/><path class="cls-8" d="M352.06,111.77Q382.19,85.19,410,57.07q-35.85-10.58-71-23.94Q344.17,72.35,352.06,111.77Z"/><path class="cls-72" d="M434.69,135.92q27.76-29,53.09-59.28-36.42-7.6-72.34-18Q423.73,97.3,434.69,135.92Z"/><path class="cls-73" d="M1189.44-42a983.49,983.49,0,0,1-1001.27-.6l-1.42,2.4a986.28,986.28,0,0,0,1004.11.6Z"/><path class="cls-78" d="M238.21-11.78q-22.76,15.42-46.54,29.9.12,6.16.31,12.34,29.07-17.78,56.64-37Q243.4-9.11,238.21-11.78Z"/><path class="cls-78" d="M217.53-22.73q-12.9,8.28-26.11,16.26,0,6.14.06,12.29Q210-5.4,227.84-17.19,222.67-19.93,217.53-22.73Z"/><path class="cls-79" d="M404.91,62.17q2.55-2.54,5.07-5.1-35.85-10.58-71-23.94.47,3.57,1,7.13Q372.12,52.37,404.91,62.17Z"/><path class="cls-79" d="M340.94,47.4q.52,3.57,1.06,7.14,26.13,9.62,52.65,17.75,2.58-2.52,5.15-5Q370.14,58.26,340.94,47.4Z"/><path class="cls-79" d="M343.1,61.68q.56,3.57,1.15,7.15,19.88,7.17,40,13.48,2.62-2.49,5.23-5Q366.14,70.07,343.1,61.68Z"/><path class="cls-79" d="M345.44,76q.61,3.58,1.23,7.15,13.45,4.74,27,9.1,2.66-2.47,5.3-4.95Q362.13,81.93,345.44,76Z"/><path class="cls-79" d="M362.94,102.06q2.7-2.44,5.38-4.9Q358.11,93.83,348,90.29q.65,3.58,1.32,7.16Q356.09,99.8,362.94,102.06Z"/><path class="cls-79" d="M350.64,104.61q.7,3.58,1.41,7.16l5.46-4.85Z"/><path class="cls-74" d="M473.21,73.48q-15.46,17.91-31.79,35.36-6.27-23.05-11.57-46.13l-7.21-2q6.85,30.84,15.41,61.66,22-23.22,42.43-47.29Z"/><path class="cls-74" d="M465.94,71.82l-7.26-1.72Q453.46,76,448.15,81.76q-2-7.61-3.84-15.23l-7.23-1.88Q440.72,80,444.79,95.3,455.55,83.67,465.94,71.82Z"/><path class="cls-75" d="M518.63,153.18q25.24-31.15,48-63.41-36.8-4.61-73.28-12Q504.64,115.59,518.63,153.18Z"/><path class="cls-75" d="M544,86.68q-25.44-3.78-50.71-8.9,7.84,26.21,17,52.31Q527.77,108.66,544,86.68Z"/><path class="cls-76" d="M603.44,163.56q22.6-33.09,42.63-67.08-37-1.62-73.84-6Q586.5,127.22,603.44,163.56Z"/><path class="cls-77" d="M643.13,96.34l-3.43-.17a2.19,2.19,0,0,0-.2.81,1.88,1.88,0,1,0,3.75.18A2.2,2.2,0,0,0,643.13,96.34Z"/><path class="cls-77" d="M634.86,101.5a2,2,0,0,0-2,1.93h0a1.9,1.9,0,1,0,3.77.21h0A2,2,0,0,0,634.86,101.5Z"/><path class="cls-77" d="M622.31,100.73a2,2,0,0,0-2,1.9h0a1.9,1.9,0,1,0,3.77.26h0A2,2,0,0,0,622.31,100.73Z"/><path class="cls-77" d="M627.21,95.47a2.15,2.15,0,0,0-.21.8,1.88,1.88,0,1,0,3.75.23,2.17,2.17,0,0,0-.11-.82Z"/><path class="cls-77" d="M614.74,94.6a2.19,2.19,0,0,0-.22.8,1.88,1.88,0,1,0,3.75.28,2.2,2.2,0,0,0-.1-.83Z"/><path class="cls-77" d="M609.77,99.8a2,2,0,0,0-2,1.88h0a1.9,1.9,0,1,0,3.77.3h0A2,2,0,0,0,609.77,99.8Z"/><path class="cls-77" d="M620.48,127.81a2,2,0,0,0-2.08,1.9h0a1.94,1.94,0,1,0,3.88.26h0A2,2,0,0,0,620.48,127.81Z"/><ellipse class="cls-77" cx="621.26" cy="116.3" rx="2.04" ry="1.92" transform="translate(463.25 728.28) rotate(-86.13)"/><path class="cls-77" d="M632.09,117a2.06,2.06,0,0,0,.62,1.6l1.33-2.16.74-1.2a1.81,1.81,0,0,0-.66-.17A2,2,0,0,0,632.09,117Z"/><ellipse class="cls-77" cx="627.21" cy="123.49" rx="2.04" ry="1.93" transform="translate(465.56 741.96) rotate(-86.49)"/><ellipse class="cls-77" cx="614.38" cy="122.62" rx="2.04" ry="1.93" transform="translate(446.72 726.26) rotate(-85.76)"/><ellipse class="cls-77" cx="628.05" cy="109.94" rx="2.04" ry="1.9" transform="matrix(0.06, -1, 1, 0.06, 479.89, 730.08)"/><ellipse class="cls-77" cx="615.38" cy="109.08" rx="2.04" ry="1.9" transform="translate(461.13 714.72) rotate(-85.76)"/><path class="cls-77" d="M607.59,126.86a2,2,0,0,0-2.1,1.87h0a1.95,1.95,0,1,0,3.87.31h0A2,2,0,0,0,607.59,126.86Z"/><ellipse class="cls-77" cx="608.51" cy="115.36" rx="2.04" ry="1.92" transform="translate(444.73 712.66) rotate(-85.4)"/><path class="cls-77" d="M610.4,149.54a2,2,0,0,0,1.14,2l2.2-3.31a1.93,1.93,0,0,0-1.21-.56A2,2,0,0,0,610.4,149.54Z"/><ellipse class="cls-77" cx="613.38" cy="136.15" rx="2.04" ry="1.96" transform="translate(432.29 737.8) rotate(-85.76)"/><path class="cls-77" d="M605.41,153.92a2,2,0,0,0-2.15,1.87h0a2,2,0,1,0,4,.32h0A2,2,0,0,0,605.41,153.92Z"/><ellipse class="cls-77" cx="606.34" cy="142.42" rx="2.04" ry="1.97" transform="translate(415.77 735.38) rotate(-85.4)"/><path class="cls-77" d="M597.23,98.71a2,2,0,0,0-2.07,1.85h0a1.9,1.9,0,1,0,3.77.35h0A2,2,0,0,0,597.23,98.71Z"/><path class="cls-77" d="M602.27,93.58a2.14,2.14,0,0,0-.23.8,1.88,1.88,0,1,0,3.74.32,2.19,2.19,0,0,0-.09-.83Z"/><path class="cls-77" d="M589.81,92.4a2.18,2.18,0,0,0-.24.8,1.88,1.88,0,1,0,3.74.37,2.16,2.16,0,0,0-.08-.83Z"/><path class="cls-77" d="M584.71,97.47a2,2,0,0,0-2.1,1.82h0a1.9,1.9,0,1,0,3.76.4h0A2,2,0,0,0,584.71,97.47Z"/><path class="cls-77" d="M594.71,125.74a2,2,0,0,0-2.12,1.84h0a1.95,1.95,0,1,0,3.87.36h0A2,2,0,0,0,594.71,125.74Z"/><ellipse class="cls-77" cx="595.78" cy="114.25" rx="2.04" ry="1.92" transform="translate(426.72 696.86) rotate(-84.67)"/><ellipse class="cls-77" cx="601.56" cy="121.59" rx="2.04" ry="1.93" transform="translate(428.4 710.37) rotate(-85.04)"/><ellipse class="cls-77" cx="588.75" cy="120.39" rx="2.04" ry="1.93" transform="translate(410.57 694.3) rotate(-84.31)"/><ellipse class="cls-77" cx="602.73" cy="108.06" rx="2.04" ry="1.9" transform="translate(442.92 699.19) rotate(-85.04)"/><ellipse class="cls-77" cx="590.09" cy="106.89" rx="2.04" ry="1.9" transform="translate(425.21 683.47) rotate(-84.31)"/><path class="cls-77" d="M583.28,111a2,2,0,0,0-2.12,1.82h0l.76,1.84a1.82,1.82,0,0,0,.93.39,2,2,0,0,0,.43-4Z"/><path class="cls-77" d="M593.45,139.26a1.89,1.89,0,0,0-1,.17l1.63,3.68a2,2,0,0,0,1.1-1.64A2,2,0,0,0,593.45,139.26Z"/><ellipse class="cls-77" cx="599.21" cy="148.63" rx="2.04" ry="1.98" transform="translate(399.29 732.73) rotate(-85.04)"/><ellipse class="cls-77" cx="600.38" cy="135.11" rx="2.04" ry="1.96" transform="translate(413.85 721.56) rotate(-85.04)"/><path class="cls-77" d="M577.36,91.06a2.17,2.17,0,0,0-.25.79,1.89,1.89,0,1,0,3.74.42,2.16,2.16,0,0,0-.07-.83Z"/><path class="cls-77" d="M577.69,103.53a1.76,1.76,0,0,0-.3,0l1.4,3.46a2.09,2.09,0,0,0,.57-1.23A2,2,0,0,0,577.69,103.53Z"/><path class="cls-8" d="M688.68,167.05q19.84-34.8,37.06-70.3-37,1.37-74,0Q668.88,132.2,688.68,167.05Z"/><path class="cls-72" d="M773.93,163.66q17-36.29,31.3-73.06Q768.4,95,731.38,96.53,751.36,130.52,773.93,163.66Z"/><path class="cls-78" d="M544,86.68q-16.27,22-33.75,43.41,2,5.78,4.1,11.55,21.36-26.27,40.92-53.35Q549.68,87.52,544,86.68Z"/><path class="cls-78" d="M521.54,83.07q-9.35,12-19.07,23.88,1.89,5.79,3.85,11.58,13.6-16.62,26.47-33.58Q527.16,84,521.54,83.07Z"/><path class="cls-78" d="M499.1,78.93l-4,4.83q1.77,5.8,3.6,11.6,5.85-7.11,11.57-14.29Q504.7,80,499.1,78.93Z"/><path class="cls-79" d="M722.59,103.2q1.59-3.22,3.15-6.44-37,1.37-74,0,1.56,3.23,3.14,6.45Q688.71,104.33,722.59,103.2Z"/><path class="cls-79" d="M658,109.59q1.6,3.22,3.23,6.43,27.44.76,54.89,0,1.63-3.21,3.24-6.42Q688.72,110.55,658,109.59Z"/><path class="cls-79" d="M664.54,122.44q1.65,3.21,3.32,6.41,20.84.44,41.68,0,1.67-3.2,3.33-6.4Q688.71,123,664.54,122.44Z"/><path class="cls-79" d="M671.22,135.24q1.69,3.2,3.4,6.38,14.07.2,28.14,0,1.72-3.19,3.41-6.38Q688.7,135.55,671.22,135.24Z"/><path class="cls-79" d="M695.81,154.37q1.76-3.18,3.5-6.36-10.62.1-21.23,0,1.74,3.18,3.49,6.36Q688.69,154.42,695.81,154.37Z"/><path class="cls-79" d="M685.1,160.71q1.78,3.17,3.58,6.34,1.8-3.16,3.59-6.33Z"/><path class="cls-74" d="M790.46,92.23q-8.91,21.89-18.77,43.62Q758.49,116,746.2,95.78l-7.41.4q16.19,27.06,34,53.57,13.37-29,25-58.31Z"/><path class="cls-74" d="M783.07,93l-7.39.68q-3.06,7.21-6.22,14.4-4.27-6.59-8.44-13.22l-7.4.51q8.28,13.38,17,26.62Q777,107.49,783.07,93Z"/><path class="cls-75" d="M858.75,153.38q14-37.55,25.39-75.37-36.46,7.34-73.29,11.91Q833.53,122.18,858.75,153.38Z"/><path class="cls-75" d="M861.71,82.26q-25.35,4.5-50.87,7.66,15.73,22.36,32.67,44.22Q853.25,108.27,861.71,82.26Z"/><path class="cls-76" d="M942.7,136.22Q953.72,97.64,962,59q-35.9,10.33-72.36,17.88Q915,107.19,942.7,136.22Z"/><path class="cls-77" d="M959.19,59.81l-3.33.94a2.19,2.19,0,0,0,.07.83,1.9,1.9,0,1,0,3.64-1A2.19,2.19,0,0,0,959.19,59.81Z"/><path class="cls-77" d="M952.93,67.34a2,2,0,0,0-1.3,2.47h0a1.91,1.91,0,1,0,3.67-1h0A2,2,0,0,0,952.93,67.34Z"/><path class="cls-77" d="M940.7,70.63a2,2,0,0,0-1.33,2.45h0a1.91,1.91,0,1,0,3.68-1h0A2,2,0,0,0,940.7,70.63Z"/><path class="cls-77" d="M943.7,64.08a2.17,2.17,0,0,0,.06.83,1.9,1.9,0,1,0,3.65-1,2.16,2.16,0,0,0-.37-.75Z"/><path class="cls-77" d="M931.51,67.25a2.12,2.12,0,0,0,0,.83,1.9,1.9,0,1,0,3.66-.93,2.19,2.19,0,0,0-.36-.75Z"/><path class="cls-77" d="M928.43,73.76a2,2,0,0,0-1.36,2.43h0a1.91,1.91,0,1,0,3.69-.92h0A2,2,0,0,0,928.43,73.76Z"/><path class="cls-77" d="M947.58,96.89a2,2,0,0,0-1.38,2.46h0a2,2,0,1,0,3.78-1h0A2,2,0,0,0,947.58,96.89Z"/><ellipse class="cls-77" cx="944.65" cy="85.73" rx="1.93" ry="2.04" transform="translate(9.11 242.2) rotate(-14.68)"/><path class="cls-77" d="M955.22,82.9a2.07,2.07,0,0,0,1.1,1.32l.59-2.47.32-1.37a1.83,1.83,0,0,0-.69,0A2,2,0,0,0,955.22,82.9Z"/><ellipse class="cls-77" cx="952.63" cy="90.63" rx="1.94" ry="2.04" transform="translate(9.13 250.43) rotate(-15.05)"/><ellipse class="cls-77" cx="940.1" cy="93.92" rx="1.94" ry="2.04" transform="translate(5.97 235.35) rotate(-14.31)"/><ellipse class="cls-77" cx="949.11" cy="77.53" rx="1.92" ry="2.04" transform="translate(12.42 249.09) rotate(-15.05)"/><ellipse class="cls-77" cx="936.75" cy="80.76" rx="1.92" ry="2.04" transform="translate(9.12 234.12) rotate(-14.31)"/><path class="cls-77" d="M935,100.11a2,2,0,0,0-1.41,2.44h0a2,2,0,1,0,3.79-.94h0A2,2,0,0,0,935,100.11Z"/><ellipse class="cls-77" cx="932.19" cy="88.91" rx="1.93" ry="2.04" transform="translate(6.06 227.36) rotate(-13.95)"/><path class="cls-77" d="M944.88,120.71a2,2,0,0,0,1.73,1.52l1-3.84a2,2,0,0,0-1.34-.15A2,2,0,0,0,944.88,120.71Z"/><ellipse class="cls-77" cx="943.46" cy="107.07" rx="1.97" ry="2.04" transform="translate(2.83 236.64) rotate(-14.32)"/><path class="cls-77" d="M941.52,126.45a2,2,0,0,0-1.46,2.46h0a2,2,0,1,0,3.89-1h0A2,2,0,0,0,941.52,126.45Z"/><ellipse class="cls-77" cx="938.73" cy="115.26" rx="1.98" ry="2.04" transform="translate(-0.1 229.69) rotate(-13.95)"/><path class="cls-77" d="M916.13,76.73a2,2,0,0,0-1.39,2.41h0a1.91,1.91,0,1,0,3.7-.87h0A2,2,0,0,0,916.13,76.73Z"/><path class="cls-77" d="M919.29,70.26a2.16,2.16,0,0,0,0,.83A1.89,1.89,0,1,0,923,70.2a2.11,2.11,0,0,0-.35-.75Z"/><path class="cls-77" d="M907,73.11a2.17,2.17,0,0,0,0,.83,1.89,1.89,0,1,0,3.68-.84,2.16,2.16,0,0,0-.34-.76Z"/><path class="cls-77" d="M903.8,79.54a2,2,0,0,0-1.42,2.4h0a1.9,1.9,0,1,0,3.71-.82h0A2,2,0,0,0,903.8,79.54Z"/><path class="cls-77" d="M922.33,103.16a2,2,0,0,0-1.44,2.43h0a2,2,0,1,0,3.8-.89h0A2,2,0,0,0,922.33,103.16Z"/><ellipse class="cls-77" cx="919.7" cy="91.93" rx="1.93" ry="2.04" transform="translate(3.35 212.72) rotate(-13.22)"/><ellipse class="cls-77" cx="927.54" cy="97.03" rx="1.94" ry="2.04" transform="translate(3.15 220.53) rotate(-13.58)"/><ellipse class="cls-77" cx="914.95" cy="99.99" rx="1.94" ry="2.04" transform="translate(0.68 206.01) rotate(-12.85)"/><ellipse class="cls-77" cx="924.35" cy="83.84" rx="1.91" ry="2.04" transform="translate(6.17 219.49) rotate(-13.59)"/><ellipse class="cls-77" cx="911.93" cy="86.76" rx="1.91" ry="2.04" transform="translate(3.55 205.07) rotate(-12.86)"/><path class="cls-77" d="M906.73,92.8a2,2,0,0,0-1.44,2.4h0l1.31,1.5a1.83,1.83,0,0,0,1,.07,2,2,0,0,0-.88-4Z"/><path class="cls-77" d="M925.44,116.37a1.92,1.92,0,0,0-.85.46l2.72,3a2,2,0,0,0,.52-1.9A2,2,0,0,0,925.44,116.37Z"/><ellipse class="cls-77" cx="933.92" cy="123.42" rx="1.99" ry="2.04" transform="translate(-2.86 222.85) rotate(-13.59)"/><ellipse class="cls-77" cx="930.73" cy="110.23" rx="1.97" ry="2.04" transform="translate(0.15 221.72) rotate(-13.59)"/><path class="cls-77" d="M894.77,75.81a2.15,2.15,0,0,0,0,.83,1.89,1.89,0,1,0,3.69-.79,2.19,2.19,0,0,0-.33-.76Z"/><path class="cls-77" d="M899.05,87.52a1.81,1.81,0,0,0-.29.1l2.43,2.84a2.09,2.09,0,0,0,.16-1.34A2,2,0,0,0,899.05,87.52Z"/><path class="cls-8" d="M1025.37,112.18q7.94-39.39,13.19-78.63-35.16,13.32-71,23.86Q995.26,85.53,1025.37,112.18Z"/><path class="cls-72" d="M1106.31,81.24q4.82-40,7-79.58Q1079,18,1043.91,31.5,1074,57.22,1106.31,81.24Z"/><path class="cls-78" d="M861.71,82.26q-8.46,26-18.2,51.88,3.75,4.84,7.56,9.65Q863,112.1,872.93,80.2,867.33,81.26,861.71,82.26Z"/><path class="cls-78" d="M839.22,86q-5,14.37-10.48,28.7,3.63,4.89,7.32,9.76,7.59-20.08,14.41-40.25Q844.85,85.11,839.22,86Z"/><path class="cls-78" d="M816.66,89.18q-1.1,2.92-2.21,5.84,3.51,4.94,7.09,9.86,3.28-8.6,6.41-17.23Q822.31,88.44,816.66,89.18Z"/><path class="cls-79" d="M1037.58,40.68q.5-3.57,1-7.13-35.16,13.32-71,23.86,2.52,2.56,5.07,5.1Q1005.36,52.75,1037.58,40.68Z"/><path class="cls-79" d="M977.68,67.58q2.56,2.53,5.14,5.05,26.52-8.09,52.67-17.69.54-3.57,1.07-7.14Q1007.36,58.64,977.68,67.58Z"/><path class="cls-79" d="M988,77.67q2.6,2.51,5.22,5,20.11-6.29,40-13.43.59-3.57,1.15-7.15Q1011.34,70.46,988,77.67Z"/><path class="cls-79" d="M998.49,87.65q2.64,2.48,5.3,5,13.55-4.34,27-9.07.63-3.58,1.24-7.15Q1015.34,82.32,998.49,87.65Z"/><path class="cls-79" d="M1028.17,97.86q.68-3.58,1.33-7.16-10.16,3.53-20.38,6.84l5.38,4.9Q1021.35,100.2,1028.17,97.86Z"/><path class="cls-79" d="M1019.92,107.32q2.72,2.43,5.45,4.85.72-3.58,1.42-7.16Z"/><path class="cls-74" d="M1099.52,8.08q-1.64,23.69-4.23,47.53Q1076.22,41.1,1057.95,26q-3.5,1.41-7,2.79,24.21,20.38,49.86,39.67,3.66-31.88,5.61-63.53Q1103,6.51,1099.52,8.08Z"/><path class="cls-74" d="M1092.62,11.21q-3.46,1.55-6.92,3.07-.66,7.84-1.42,15.69-6.22-4.85-12.36-9.77-3.48,1.47-7,2.91,12.24,10,24.84,19.68Q1091.41,27,1092.62,11.21Z"/><path class="cls-75" d="M1185.09,43.43q1.67-40.32.7-80.08-33.12,19.29-67.3,35.81Q1150.72,22.25,1185.09,43.43Z"/><path class="cls-75" d="M1165.36-25.07q-23.18,12.78-46.87,24.23,22.34,16,45.71,31.09Q1165.41,2.46,1165.36-25.07Z"/><path class="cls-78" d="M1165.36-25.07q.05,27.52-1.16,55.32,5.18,3.34,10.4,6.63,1.45-34,1-67.68Q1170.49-27.9,1165.36-25.07Z"/><path class="cls-78" d="M1144.72-14q-.31,15.32-1,30.71,5.08,3.43,10.2,6.82,1-21.57,1.17-43Q1149.9-16.71,1144.72-14Z"/><path class="cls-78" d="M1123.89-3.47q-.13,3.13-.29,6.27,5,3.52,10,7,.44-9.25.73-18.47Q1129.12-6,1123.89-3.47Z"/></g><path class="cls-41" d="M1249.23,803.58l2.17,3.48a23.94,23.94,0,0,0,15,10.72l11.62,2.69.75-3.25-11.62-2.69a20.62,20.62,0,0,1-12.93-9.24l-2.17-3.47Z"/><path class="cls-42" d="M1360.41,838l-.08-.15L1276,818.28l0,.12s-6.72,29.53,29,37.82C1328.3,861.63,1360.41,838,1360.41,838Z"/><path class="cls-85" d="M1360.41,838l-.08-.15L1276,818.28l0,.12s-6.72,29.53,29,37.82C1328.3,861.63,1360.41,838,1360.41,838Z"/><path class="cls-44" d="M1360.33,837.83l.08.15s-18.44-35.36-41.77-40.77c-35.75-8.28-42.71,21.19-42.71,21.19l0-.12Z"/><path class="cls-86" d="M1360.33,837.83l.08.15s-18.44-35.36-41.77-40.77c-35.75-8.28-42.71,21.19-42.71,21.19l0-.12Z"/></g></svg>